<svg id="Layer_1" data-name="Layer 1" xmlns="http://www.w3.org/2000/svg" viewBox="0 0 64.05 89.6"><defs><style>.cls-1{fill:#fff;}</style></defs><title>Artboard 2</title><path class="cls-1" d="M57.48,86.4c-3.3,0-3.3-5.1,0-5.1S60.78,86.4,57.48,86.4Zm-7-42.9c-3.3,0-3.3,5.1,0,5.1S53.77,43.5,50.48,43.5ZM32.68,47c-3.3,0-3.3,5.1,0,5.1S36,47,32.68,47ZM61.57,0c-3.3,0-3.3,5.1,0,5.1S64.88,0,61.57,0ZM11.77,35.6c-3.29,0-3.29,5.1,0,5.1S15.08,35.6,11.77,35.6ZM2.48,57c-3.31,0-3.31,5.1,0,5.1S5.78,57,2.48,57ZM23.07,84.5c-3.3,0-3.3,5.1,0,5.1S26.38,84.5,23.07,84.5Zm2.61-13.1c-3.3,0-3.3,5.1,0,5.1S29,71.4,25.68,71.4Zm15.5-1a1.65,1.65,0,0,0,0,3.3A1.65,1.65,0,0,0,41.18,70.4Zm3.89,3.4a1.65,1.65,0,0,0,0,3.3A1.65,1.65,0,0,0,45.07,73.8ZM5,51.9a1.65,1.65,0,0,0,0,3.3A1.65,1.65,0,0,0,5,51.9Zm6.5-3.1c-2.8,0-2.8,4.4,0,4.4S14.27,48.8,11.48,48.8ZM7.27,53.5l1.8-.7a2.39,2.39,0,0,1-.5-1.4l-1.8.6A2.21,2.21,0,0,1,7.27,53.5ZM14.87,37,33.38,24.2a2,2,0,0,1-.8-1.2L14.08,35.8A3,3,0,0,1,14.87,37ZM11.48,48.1a1.9,1.9,0,0,1,.79.1l.21-6.8c-.21,0-.4.1-.61.1a1.9,1.9,0,0,1-.79-.1l-.21,6.8C11,48.1,11.18,48.1,11.48,48.1Zm18.79-.7-15.4-8.3a3.17,3.17,0,0,1-.7,1.3h0l15.4,8.3A3.57,3.57,0,0,1,30.27,47.4ZM25.68,77.2a3.27,3.27,0,0,1-1.41-.3L23,83.7h.09a2.74,2.74,0,0,1,1.3.3l1.31-6.8Zm10-29a3.08,3.08,0,0,1,.3,1.3v.1l11.5-2.2a2.94,2.94,0,0,1-.3-1.3V46ZM55.07,81.6l.2-.2L47.37,76a3.13,3.13,0,0,1-.5,1l-.3.3,7.9,5.4A2.48,2.48,0,0,1,55.07,81.6Zm3.6-77.8-21.6,16a2.79,2.79,0,0,1,.8,1.3l21.61-16A3.55,3.55,0,0,1,58.67,3.8Zm-15.29,70,.4-.4-.5-.4a2.09,2.09,0,0,1-.4.6,2.65,2.65,0,0,1-.6.5l.6.5A2.18,2.18,0,0,1,43.38,73.8ZM20.68,84.9a4.44,4.44,0,0,1,1.1-.8L5,61.6l-.11.1a4.44,4.44,0,0,1-1.1.8l16.8,22.4Zm18.5-11.6a2.66,2.66,0,0,1-.3-1.2v-.2l-10.2,1.2a3.41,3.41,0,0,1,.09,1v.5ZM4.37,56.8l.4-.9a2.26,2.26,0,0,1-1.3-.6l-.4,1A2.86,2.86,0,0,1,4.37,56.8Zm30.81-37c-2.8,0-2.8,4.4,0,4.4S38,19.8,35.18,19.8Z"/></svg>