<?xml version="1.0" encoding="utf-8"?>
<!-- Generator: Adobe Illustrator 22.1.0, SVG Export Plug-In . SVG Version: 6.00 Build 0)  -->
<!DOCTYPE svg PUBLIC "-//W3C//DTD SVG 1.1//EN" "http://www.w3.org/Graphics/SVG/1.1/DTD/svg11.dtd">
<svg version="1.1" id="Layer_1" xmlns="http://www.w3.org/2000/svg" xmlns:xlink="http://www.w3.org/1999/xlink" x="0px" y="0px"
	 viewBox="0 0 99.1 42.6" style="enable-background:new 0 0 99.1 42.6;" xml:space="preserve">
<style type="text/css">
	.st0{display:none;}
	.st1{display:inline;fill:none;stroke:#000000;stroke-width:4;stroke-miterlimit:10;}
	.st2{display:inline;fill:none;stroke:#000000;stroke-width:4;stroke-linecap:round;stroke-linejoin:round;stroke-miterlimit:10;}
	.st3{display:inline;}
	.st4{fill:none;stroke:#000000;stroke-width:4;stroke-linecap:round;stroke-linejoin:round;stroke-miterlimit:10;}
	.st5{fill:#FFFFFF;}
</style>
<g class="st0">
	<text transform="matrix(1 0 0 1 504.4754 -224.6893)" class="st3" style="font-family:'MyriadPro-Regular'; font-size:47px;">aries // ram</text>
	<text transform="matrix(1 0 0 1 485.8822 -85.1604)" class="st3" style="font-family:'MyriadPro-Regular'; font-size:47px;">taurus // bull</text>
	<text transform="matrix(1 0 0 1 484.3822 22.3264)" class="st3" style="font-family:'MyriadPro-Regular'; font-size:47px;">gemini // twins</text>
	<text transform="matrix(1 0 0 1 485.882 175.4594)" class="st3" style="font-family:'MyriadPro-Regular'; font-size:47px;">cancer // crab</text>
	<text transform="matrix(1 0 0 1 481.3825 321.6112)" class="st3" style="font-family:'MyriadPro-Regular'; font-size:47px;">leo // lion</text>
	<text transform="matrix(1 0 0 1 479.8827 470.3002)" class="st3" style="font-family:'MyriadPro-Regular'; font-size:47px;">virgo // virgin</text>
	<text transform="matrix(1 0 0 1 478.3827 620.5443)" class="st3" style="font-family:'MyriadPro-Regular'; font-size:47px;">libra // scales</text>
	<text transform="matrix(1 0 0 1 476.8828 720.7069)" class="st3" style="font-family:'MyriadPro-Regular'; font-size:47px;">scorpius // scorpion</text>
	<text transform="matrix(1 0 0 1 473.1333 876.6291)" class="st3" style="font-family:'MyriadPro-Regular'; font-size:47px;">sagitarius // archer</text>
	<text transform="matrix(1 0 0 1 471.6334 1023.1152)" class="st3" style="font-family:'MyriadPro-Regular'; font-size:47px;">capricornus // sea-goat</text>
	<text transform="matrix(1 0 0 1 469.3836 1171.5688)" class="st3" style="font-family:'MyriadPro-Regular'; font-size:47px;">Aquarius // Waterbearer</text>
	<text transform="matrix(1 0 0 1 467.8836 1271.7316)" class="st3" style="font-family:'MyriadPro-Regular'; font-size:47px;">Pisces // fish</text>
	<circle class="st1" cx="-845.7" cy="1709.8" r="25"/>
	<path class="st2" d="M-865.6-92.4c-9.2-3.7-15.6-12.7-15.6-23.2s6.5-19.5,15.6-23.2l0,0c-2.9-1.2-6.1-1.8-9.4-1.8
		c-13.8,0-25,11.2-25,25s11.2,25,25,25C-871.7-90.6-868.5-91.3-865.6-92.4L-865.6-92.4z"/>
	<path class="st2" d="M-836.3-138.8c2.9-1.2,6-1.8,9.4-1.8c13.8,0,25,11.2,25,25s-11.2,25-25,25c-3.3,0-6.5-0.6-9.4-1.8l0,0
		c9.2-3.7,15.6-12.7,15.6-23.2C-820.6-126.1-827.1-135.1-836.3-138.8L-836.3-138.8z"/>
	<circle class="st1" cx="-890.2" cy="-24" r="25"/>
	<line class="st2" x1="-909.2" y1="1255.5" x2="-909.2" y2="1281.7"/>
	<line class="st2" x1="-896.1" y1="1281.7" x2="-922.3" y2="1281.7"/>
	<line class="st2" x1="-972.3" y1="1125.7" x2="-972.3" y2="1151.9"/>
	<line class="st2" x1="-959.2" y1="1138.8" x2="-985.4" y2="1138.8"/>
	<path class="st2" d="M-857,365.4c2.4,3.8,3.8,8.4,3.8,13.3c0,13.8-11.2,25-25,25s-25-11.2-25-25c0-4.9,1.4-9.4,3.8-13.3"/>
	<line class="st2" x1="-880.2" y1="135.5" x2="-880.2" y2="205.1"/>
	<line class="st2" x1="-867.1" y1="148.6" x2="-893.3" y2="148.6"/>
	<line class="st2" x1="-878.2" y1="424.2" x2="-878.2" y2="354.6"/>
	<line class="st2" x1="-891.4" y1="411" x2="-865.1" y2="411"/>
	<line class="st2" x1="-887.5" y1="-234.3" x2="-887.5" y2="-184.3"/>
	<line class="st2" x1="-862.5" y1="-209.3" x2="-912.5" y2="-209.3"/>
	<circle class="st1" cx="-887.5" cy="-411.2" r="25"/>
	<path class="st2" d="M-868.2-441.7c0,4.1-1.3,7.9-3.5,11.1"/>
	<path class="st2" d="M-903.3-430.6c-2.2-3.1-3.5-7-3.5-11.1"/>
	<line class="st2" x1="-887.5" y1="-386.2" x2="-887.5" y2="-360"/>
	<line class="st2" x1="-874.4" y1="-373.1" x2="-900.6" y2="-373.1"/>
	<path class="st2" d="M-813.9-419.9c4.4-11.8,23.7-12.1,25.9,4.2c2.3,16.3-16.2,28.2-25.9,29.6"/>
	<path class="st2" d="M-894.3,48.9c4.4-11.8,23.7-12.1,25.9,4.2c2.3,16.3-16.2,28.2-25.9,29.6"/>
	<path class="st2" d="M-880.2,169.3c5.7-15.6,36.8-13.3,36.8,8.9c0,9.8-7.2,13-15.3,18c-6.2,3.8-2.4,10.7,2.5,10.7"/>
	<g class="st3">
		<path class="st4" d="M-807.9-435.2c0,4.1-1.3,7.9-3.5,11.1"/>
		<path class="st4" d="M-816.5-424.2c-2.2-3.1-3.5-7-3.5-11.1"/>
	</g>
	<line class="st2" x1="-813.9" y1="-386.2" x2="-813.9" y2="-360"/>
	<line class="st2" x1="-800.8" y1="-373.1" x2="-827" y2="-373.1"/>
	<circle class="st1" cx="-887.5" cy="-314" r="25"/>
	<line class="st2" x1="-887.5" y1="-289" x2="-887.5" y2="-262.8"/>
	<line class="st2" x1="-874.4" y1="-275.9" x2="-900.6" y2="-275.9"/>
	<circle class="st1" cx="-811.4" cy="-196.2" r="25"/>
	<circle class="st1" cx="-887.5" cy="-209.3" r="25"/>
	<line class="st2" x1="-811.4" y1="-221.2" x2="-811.4" y2="-247.4"/>
	<line class="st2" x1="-824.5" y1="-234.3" x2="-798.2" y2="-234.3"/>
	<path class="st1" d="M-809.8,1537.8c2.3,3.8,3.7,8.3,3.7,13.1c0,13.8-11.2,25-25,25s-25-11.2-25-25c0-4.8,1.4-9.3,3.7-13.1"/>
	<circle class="st1" cx="-883.2" cy="1102.3" r="25"/>
	<line class="st2" x1="-883.2" y1="1127.3" x2="-883.2" y2="1153.5"/>
	<line class="st2" x1="-870.1" y1="1140.4" x2="-896.3" y2="1140.4"/>
	<line class="st2" x1="-945.2" y1="1016" x2="-945.2" y2="1042.2"/>
	<line class="st2" x1="-932.1" y1="1029.1" x2="-958.3" y2="1029.1"/>
	<line class="st2" x1="-952.8" y1="658" x2="-952.8" y2="713"/>
	<line class="st2" x1="-925.3" y1="685.5" x2="-980.3" y2="685.5"/>
	<path class="st2" d="M-964.7,574.6c0-13.8,11.2-25,25-25s25,11.2,25,25s-11.2,25-25,25"/>
	<line class="st2" x1="-939.7" y1="599.6" x2="-939.7" y2="625.8"/>
	<line class="st2" x1="-926.6" y1="612.7" x2="-952.8" y2="612.7"/>
	<circle class="st1" cx="-887.5" cy="-479" r="25"/>
	<circle class="st3" cx="-887.5" cy="-479" r="3"/>
	<line class="st2" x1="-828" y1="1692.1" x2="-809.5" y2="1673.6"/>
	<line class="st2" x1="-927.1" y1="861.9" x2="-945.2" y2="869.4"/>
	<line class="st2" x1="-927.1" y1="876.9" x2="-945.2" y2="869.4"/>
	<circle class="st1" cx="-882.8" cy="286" r="25"/>
	<circle class="st3" cx="-882.8" cy="286" r="3"/>
	<line class="st2" x1="-882.8" y1="261" x2="-882.8" y2="234.8"/>
	<line class="st2" x1="-873.5" y1="244.1" x2="-882.8" y2="234.8"/>
	<line class="st2" x1="-892.1" y1="244.1" x2="-882.8" y2="234.8"/>
	<line class="st2" x1="-872.4" y1="-41.7" x2="-853.8" y2="-60.3"/>
	<line class="st2" x1="-853.8" y1="-47.2" x2="-853.8" y2="-60.3"/>
	<line class="st2" x1="-867" y1="-60.3" x2="-853.8" y2="-60.3"/>
	<line class="st2" x1="-789.8" y1="-39" x2="-789.8" y2="-52.1"/>
	<line class="st2" x1="-802.9" y1="-52.1" x2="-789.8" y2="-52.1"/>
	<path class="st2" d="M-814-419.9c-4.4-11.8-23.7-12.1-25.9,4.2c-2.3,16.3,16.2,28.2,25.9,29.6"/>
	<path class="st2" d="M-813.9-328.9c4.4-11.8,23.7-12.1,25.9,4.2c2.3,16.3-16.2,28.2-25.9,29.6"/>
	<line class="st2" x1="-813.9" y1="-295.2" x2="-813.9" y2="-268.9"/>
	<line class="st2" x1="-800.8" y1="-282.1" x2="-827" y2="-282.1"/>
	<path class="st2" d="M-814-328.9c-4.4-11.8-23.7-12.1-25.9,4.2c-2.3,16.3,16.2,28.2,25.9,29.6"/>
	<path class="st2" d="M-832.2-9.7c-11.4,5.3-25.3-8.2-15.4-21.3c10-13.2,31.3-8.5,39.3-2.6"/>
	<line class="st2" x1="-808.3" y1="-33.5" x2="-789.8" y2="-52.1"/>
	<path class="st2" d="M-832.1-9.6c-5.3,11.4,8.2,25.3,21.3,15.4c13.2-10,8.5-31.3,2.6-39.3"/>
	<path class="st2" d="M-900.1,456.5c12.1-2,23.9,6.4,23.9,19.4c0,12.9-11.8,21.4-23.9,19.4"/>
	<line class="st2" x1="-900.6" y1="456.5" x2="-900.6" y2="520.2"/>
	<line class="st2" x1="-874.4" y1="520.2" x2="-900.6" y2="520.2"/>
	<path class="st2" d="M-800.3,466.8c0,13.8-11.2,25-25,25s-25-11.2-25-25"/>
	<line class="st2" x1="-825.3" y1="491.8" x2="-825.3" y2="518"/>
	<line class="st2" x1="-812.2" y1="504.9" x2="-838.5" y2="504.9"/>
	<circle class="st2" cx="-825.3" cy="466.8" r="12.5"/>
	<circle class="st1" cx="-945.2" cy="906.3" r="12.5"/>
	<line class="st2" x1="-945.2" y1="845.1" x2="-945.2" y2="893.8"/>
	<circle class="st1" cx="-856.3" cy="1525.9" r="12.5"/>
	<circle class="st1" cx="-806.1" cy="1525.9" r="12.5"/>
	<path class="st1" d="M-862.8,1439.1c-2.3-3.8-3.7-8.3-3.7-13.1c0-13.8,11.2-25,25-25s25,11.2,25,25c0,4.8-1.4,9.3-3.7,13.1"/>
	<circle class="st1" cx="-816.3" cy="1451" r="12.5"/>
	<circle class="st1" cx="-866.5" cy="1451" r="12.5"/>
	<circle class="st1" cx="-942.4" cy="800.1" r="12.5"/>
	<line class="st2" x1="-899.2" y1="756.9" x2="-933.6" y2="791.3"/>
	<line class="st2" x1="-920.1" y1="743.9" x2="-951.3" y2="791.3"/>
	<line class="st2" x1="-859.4" y1="53.3" x2="-859.4" y2="101.9"/>
	<line class="st2" x1="-845.6" y1="82.7" x2="-894.3" y2="82.7"/>
	<circle class="st1" cx="-812.8" cy="292.4" r="25"/>
	<path class="st2" d="M-836.4,233.2c6.1,2.7,10.4,8.9,10.4,16c0,7.1-4.3,13.3-10.4,16"/>
	<line class="st2" x1="-812.8" y1="236.2" x2="-812.8" y2="267.4"/>
	<line class="st2" x1="-799.7" y1="249.3" x2="-826" y2="249.3"/>
	<path class="st2" d="M-789.3,233.2c-6.1,2.7-10.4,8.9-10.4,16c0,7.1,4.3,13.3,10.4,16"/>
	<circle class="st1" cx="-743.7" cy="298.5" r="12.5"/>
	<line class="st2" x1="-743.7" y1="237.4" x2="-743.7" y2="286"/>
	<line class="st2" x1="-730.6" y1="261.4" x2="-756.8" y2="261.4"/>
	<polyline class="st2" points="-767.3,245 -756.8,245 -756.8,277.8 -767.3,277.8 	"/>
	<polyline class="st2" points="-720.2,245 -730.6,245 -730.6,277.8 -720.2,277.8 	"/>
	<text transform="matrix(1 0 0 1 -1092.6158 -468.1795)" class="st3" style="font-family:'MyriadPro-Regular'; font-size:47px;">sun</text>
	<text transform="matrix(1 0 0 1 -1091.116 -399.2005)" class="st3" style="font-family:'MyriadPro-Regular'; font-size:47px;">mercury</text>
	<text transform="matrix(1 0 0 1 -1092.6158 -299.0379)" class="st3" style="font-family:'MyriadPro-Regular'; font-size:47px;">venus</text>
	<text transform="matrix(1 0 0 1 -1094.1158 -198.8752)" class="st3" style="font-family:'MyriadPro-Regular'; font-size:47px;">earth</text>
	<text transform="matrix(1 0 0 1 -1095.6157 -98.7125)" class="st3" style="font-family:'MyriadPro-Regular'; font-size:47px;">moon</text>
	<text transform="matrix(1 0 0 1 -1097.1156 1.4501)" class="st3" style="font-family:'MyriadPro-Regular'; font-size:47px;">mars</text>
	<text transform="matrix(1 0 0 1 -1098.6156 101.6128)" class="st3" style="font-family:'MyriadPro-Regular'; font-size:47px;">jupiter</text>
	<text transform="matrix(1 0 0 1 -1100.1155 201.7755)" class="st3" style="font-family:'MyriadPro-Regular'; font-size:47px;">saturn</text>
	<text transform="matrix(1 0 0 1 -1101.6154 301.9381)" class="st3" style="font-family:'MyriadPro-Regular'; font-size:47px;">uranus</text>
	<text transform="matrix(1 0 0 1 -1103.1154 402.1008)" class="st3" style="font-family:'MyriadPro-Regular'; font-size:47px;">neptune</text>
	<text transform="matrix(1 0 0 1 -1104.6152 502.2634)" class="st3" style="font-family:'MyriadPro-Regular'; font-size:47px;">pluto</text>
	<text transform="matrix(1 0 0 1 -1106.1152 602.4261)" class="st3" style="font-family:'MyriadPro-Regular'; font-size:47px;">ceres</text>
	<text transform="matrix(1 0 0 1 -1107.6151 702.5888)" class="st3" style="font-family:'MyriadPro-Regular'; font-size:47px;">star</text>
	<text transform="matrix(1 0 0 1 -1109.115 802.7515)" class="st3" style="font-family:'MyriadPro-Regular'; font-size:47px;">comet</text>
	<text transform="matrix(1 0 0 1 -1110.615 902.9143)" class="st3" style="font-family:'MyriadPro-Regular'; font-size:47px;">chiron</text>
	<text transform="matrix(1 0 0 1 -1112.1149 1003.077)" class="st3" style="font-family:'MyriadPro-Regular'; font-size:47px;">pallas</text>
	<text transform="matrix(1 0 0 1 -1111.2014 1143.9894)" class="st3" style="font-family:'MyriadPro-Regular'; font-size:47px;">juno</text>
	<text transform="matrix(1 0 0 1 -1117.9512 1444.4777)" class="st3" style="font-family:'MyriadPro-Regular'; font-size:47px;">north node</text>
	<text transform="matrix(1 0 0 1 -1119.4512 1544.6404)" class="st3" style="font-family:'MyriadPro-Regular'; font-size:47px;">south node</text>
	<text transform="matrix(1 0 0 1 -1099.2858 1253.6112)" class="st3" style="font-family:'MyriadPro-Regular'; font-size:47px;">hebe</text>
	<text transform="matrix(1 0 0 1 -1118.701 1734.7986)" class="st3" style="font-family:'MyriadPro-Regular'; font-size:47px;">conjuction</text>
	<text transform="matrix(1 0 0 1 -1118.701 1824.7942)" class="st3" style="font-family:'MyriadPro-Regular'; font-size:47px;">opposition</text>
	<line class="st2" x1="-933.4" y1="666.1" x2="-972.3" y2="705"/>
	<line class="st2" x1="-933.4" y1="705" x2="-972.3" y2="666.1"/>
	<line class="st2" x1="-972.3" y1="1070.7" x2="-972.3" y2="1125.7"/>
	<line class="st2" x1="-944.8" y1="1098.2" x2="-999.8" y2="1098.2"/>
	<line class="st2" x1="-952.8" y1="1078.7" x2="-991.7" y2="1117.6"/>
	<line class="st2" x1="-952.8" y1="1117.6" x2="-991.7" y2="1078.7"/>
	<line class="st2" x1="-863.7" y1="1057.9" x2="-883.2" y2="1077.3"/>
	<line class="st2" x1="-883.2" y1="1077.3" x2="-902.6" y2="1057.9"/>
	<line class="st2" x1="-886.2" y1="777.8" x2="-933.6" y2="809"/>
	<circle class="st1" cx="-850.1" cy="800.2" r="12.5"/>
	<line class="st2" x1="-827.8" y1="743.9" x2="-859" y2="791.4"/>
	<line class="st2" x1="-793.9" y1="777.9" x2="-841.3" y2="809"/>
	<g class="st3">
		<line class="st4" x1="-813.5" y1="751.2" x2="-845.1" y2="787.8"/>
		<line class="st4" x1="-801.1" y1="763.5" x2="-837.8" y2="795.1"/>
	</g>
	<line class="st2" x1="-869" y1="363.8" x2="-878.2" y2="354.6"/>
	<line class="st2" x1="-887.5" y1="363.8" x2="-878.2" y2="354.6"/>
	<path class="st3" d="M418.9,814.1c0-0.1,0-0.1-0.1-0.2c0-0.1,0-0.1-0.1-0.2c0-0.1-0.1-0.1-0.1-0.2c0-0.1-0.1-0.1-0.1-0.2
		c-0.1-0.2-0.3-0.4-0.6-0.6l-0.1-0.1c-0.1,0-0.1-0.1-0.2-0.1s-0.1,0-0.2-0.1c-0.1,0-0.1,0-0.2-0.1c-0.1,0-0.3,0-0.4,0h-38.4
		c-1.1,0-2,0.9-2,2s0.9,2,2,2H412l-57.6,58l-16.5-16.5c-0.8-0.8-2-0.8-2.8,0s-0.8,2,0,2.8l16.5,16.5l-31,31c-0.8,0.8-0.8,2,0,2.8
		c0.4,0.4,0.9,0.6,1.4,0.6s1-0.2,1.4-0.6l31-31l16.5,16.5c0.4,0.4,0.9,0.6,1.4,0.6s1-0.2,1.4-0.6c0.8-0.8,0.8-2,0-2.8l-16.5-16.5
		l57.8-57.8v33.6c0,1.1,0.9,2,2,2s2-0.9,2-2v-38.4C419,814.4,418.9,814.2,418.9,814.1z"/>
	<line class="st2" x1="-845.1" y1="370.9" x2="-857" y2="365.3"/>
	<line class="st2" x1="-862.6" y1="377.1" x2="-857" y2="365.3"/>
	<line class="st2" x1="-911.2" y1="370.9" x2="-899.3" y2="365.3"/>
	<line class="st2" x1="-893.7" y1="377.1" x2="-899.3" y2="365.3"/>
	
		<rect x="-970.3" y="955.7" transform="matrix(0.7071 -0.7071 0.7071 0.7071 -970.307 -381.1795)" class="st2" width="50" height="50"/>
	<line class="st2" x1="-876" y1="1050.8" x2="-883.2" y2="1077.3"/>
	<line class="st2" x1="-890.3" y1="1050.8" x2="-883.2" y2="1077.3"/>
	<polygon class="st2" points="-884.2,1198.4 -909.2,1255.5 -934.2,1198.4 	"/>
	<circle class="st1" cx="-865.5" cy="1851.8" r="25"/>
	<line class="st2" x1="-847.8" y1="1834.1" x2="-829.2" y2="1815.6"/>
	<circle class="st1" cx="-811.4" cy="1797.8" r="25"/>
	<path class="st3" d="M409,81.8c-8-3.1-16.3-5.4-24.7-6.8V-2.7c8.4-1.4,16.7-3.6,24.7-6.8c1-0.4,1.5-1.6,1.1-2.6s-1.6-1.5-2.6-1.1
		c-13.8,5.4-28.3,8.1-43.2,8.1c-14.9,0-29.4-2.7-43.2-8.1c-1-0.4-2.2,0.1-2.6,1.1s0.1,2.2,1.1,2.6c8,3.1,16.3,5.4,24.7,6.8V75
		c-8.4,1.4-16.7,3.6-24.7,6.8c-1,0.4-1.5,1.6-1.1,2.6c0.3,0.8,1.1,1.3,1.9,1.3c0.2,0,0.5,0,0.7-0.1c13.8-5.4,28.3-8.1,43.2-8.1
		c14.9,0,29.4,2.7,43.2,8.1c1,0.4,2.2-0.1,2.6-1.1C410.5,83.4,410,82.2,409,81.8z M348.4,74.4V-2.1c5.3,0.7,10.6,1,15.9,1
		c5.4,0,10.7-0.4,15.9-1v76.6c-5.3-0.7-10.6-1-15.9-1C359,73.4,353.7,73.8,348.4,74.4z"/>
	<path class="st3" d="M393.7,1278.8c-15.1-11.8-23.7-27.4-24.3-43.9h23.1c1.1,0,2-0.9,2-2s-0.9-2-2-2h-23.1
		c0.6-16.6,9.2-32.1,24.3-43.9c0.9-0.7,1-1.9,0.3-2.8s-1.9-1-2.8-0.3c-16.1,12.6-25.2,29.3-25.8,47.1h-14.6
		c-0.6-17.8-9.7-34.5-25.8-47.1c-0.9-0.7-2.1-0.5-2.8,0.3c-0.7,0.9-0.5,2.1,0.3,2.8c15.1,11.8,23.7,27.4,24.3,43.9h-23.1
		c-1.1,0-2,0.9-2,2s0.9,2,2,2h23.1c-0.6,16.6-9.2,32.1-24.3,43.9c-0.9,0.7-1,1.9-0.3,2.8c0.4,0.5,1,0.8,1.6,0.8
		c0.4,0,0.9-0.1,1.2-0.4c16.1-12.6,25.2-29.3,25.8-47.1h14.6c0.6,17.8,9.7,34.5,25.8,47.1c0.4,0.3,0.8,0.4,1.2,0.4
		c0.6,0,1.2-0.3,1.6-0.8C394.7,1280.8,394.5,1279.5,393.7,1278.8z"/>
	<path class="st3" d="M408.9-296.9c-12.7,0-23.6,8-27.9,19.2c-4.3-11.2-15.2-19.2-27.9-19.2c-16.5,0-29.9,13.4-29.9,29.9
		c0,8,3.1,15.5,8.8,21.1c0.4,0.4,0.9,0.6,1.4,0.6s1-0.2,1.4-0.6c0.8-0.8,0.8-2,0-2.8c-4.9-4.9-7.6-11.4-7.6-18.3
		c0-14.3,11.6-25.9,25.9-25.9S379-281.3,379-267v67.1c0,1.1,0.9,2,2,2s2-0.9,2-2V-267c0-14.3,11.6-25.9,25.9-25.9
		s25.9,11.6,25.9,25.9c0,6.9-2.7,13.4-7.6,18.3c-0.8,0.8-0.8,2,0,2.8c0.4,0.4,0.9,0.6,1.4,0.6s1-0.2,1.4-0.6
		c5.6-5.6,8.8-13.2,8.8-21.1C438.8-283.5,425.4-296.9,408.9-296.9z"/>
	<g class="st3">
		<path d="M434.6,628.6h-95c-1.1,0-2,0.9-2,2s0.9,2,2,2h95c1.1,0,2-0.9,2-2S435.7,628.6,434.6,628.6z"/>
		<path d="M339.6,613.5h27.2l0,0l0,0c0.1,0,0.3,0,0.4,0h0.1c0.1,0,0.2,0,0.2-0.1c0,0,0.1,0,0.1-0.1c0.1,0,0.1-0.1,0.2-0.1l0.1-0.1
			c0,0,0.1,0,0.1-0.1c0,0,0,0,0.1-0.1l0.1-0.1c0-0.1,0.1-0.1,0.1-0.2l0.1-0.1c0-0.1,0.1-0.1,0.1-0.2c0-0.1,0-0.1,0.1-0.2
			c0-0.1,0-0.1,0.1-0.2c0-0.1,0-0.1,0-0.2c0-0.1,0-0.2,0-0.2s0,0,0-0.1v-0.1c0-0.1,0-0.2,0-0.2c0-0.1,0-0.1,0-0.2
			c0-0.1,0-0.1-0.1-0.2c0-0.1,0-0.1-0.1-0.2c0-0.1-0.1-0.1-0.1-0.2c0-0.1-0.1-0.1-0.1-0.2c0,0,0-0.1-0.1-0.1
			c-3.8-4.4-5.8-10.1-5.8-15.9c0-13.6,11-24.6,24.6-24.6s24.6,11,24.6,24.6c0,5.8-2.1,11.5-5.8,15.9c0,0,0,0.1-0.1,0.1
			c0,0-0.1,0.1-0.1,0.2c0,0.1-0.1,0.1-0.1,0.2c0,0.1,0,0.1-0.1,0.2c0,0.1,0,0.1-0.1,0.2c0,0.1,0,0.1,0,0.2c0,0.1,0,0.1,0,0.2v0.1
			v0.1c0,0.1,0,0.1,0,0.2c0,0.1,0,0.1,0,0.2c0,0.1,0,0.1,0.1,0.2c0,0.1,0,0.1,0.1,0.2c0,0.1,0.1,0.1,0.1,0.2c0,0.1,0.1,0.1,0.1,0.2
			l0.1,0.1c0.1,0.1,0.1,0.1,0.2,0.2l0,0c0,0,0,0,0.1,0c0.1,0.1,0.1,0.1,0.2,0.1c0,0,0.1,0,0.1,0.1c0.1,0,0.1,0.1,0.2,0.1h0.1
			c0.1,0,0.2,0,0.2,0c0.1,0,0.1,0,0.2,0h0.1h26.2c1.1,0,2-0.9,2-2s-0.9-2-2-2h-22.3c2.8-4.5,4.4-9.8,4.4-15.2
			c0-15.8-12.8-28.6-28.6-28.6s-28.6,12.8-28.6,28.6c0,5.4,1.6,10.7,4.4,15.2h-23.1c-1.1,0-2,0.9-2,2S338.5,613.5,339.6,613.5z"/>
	</g>
	<g class="st3">
		<path d="M359.1,175.3c0-11.6-9.5-21.1-21.1-21.1c-5.6,0-10.7,2.2-14.4,5.7c6.3-17.5,23.1-30,42.7-30c12.1,0,23.5,4.7,32.1,13.3
			c0.8,0.8,2,0.8,2.8,0s0.8-2,0-2.8c-9.3-9.3-21.7-14.5-34.9-14.5c-27.2,0-49.4,22.1-49.4,49.4c0,11.6,9.5,21.1,21.1,21.1
			S359.1,187,359.1,175.3z M320.9,175.3c0-9.4,7.7-17.1,17.1-17.1s17.1,7.7,17.1,17.1c0,9.4-7.7,17.1-17.1,17.1
			S320.9,184.8,320.9,175.3z"/>
		<path d="M390.8,154.5c-11.6,0-21.1,9.5-21.1,21.1s9.5,21.1,21.1,21.1c5.6,0,10.7-2.2,14.4-5.7c-6.3,17.5-23.1,30-42.7,30
			c-12.1,0-23.5-4.7-32.1-13.3c-0.8-0.8-2-0.8-2.8,0s-0.8,2,0,2.8c9.3,9.3,21.7,14.5,34.9,14.5c27.2,0,49.4-22.1,49.4-49.4
			C411.9,163.9,402.4,154.5,390.8,154.5z M390.8,192.7c-9.4,0-17.1-7.7-17.1-17.1c0-9.4,7.7-17.1,17.1-17.1s17.1,7.7,17.1,17.1
			C407.9,185,400.2,192.7,390.8,192.7z"/>
	</g>
	<g class="st3">
		<path d="M310.6,1113.9c0.5,0,1-0.2,1.4-0.6l18.1-18.1l14.4,14.4c0.8,0.8,2,0.8,2.8,0l14.4-14.4l14.4,14.4c0.4,0.4,0.9,0.6,1.4,0.6
			s1-0.2,1.4-0.6l0,0l14.4-14.4l10.7,10.7c0.8,0.8,2,0.8,2.8,0s0.8-2,0-2.8l-12.1-12.1c-0.8-0.8-2-0.8-2.8,0l-14.4,14.4l-14.4-14.4
			c-0.8-0.8-2-0.8-2.8,0l-14.4,14.4l-14.4-14.4c-0.8-0.8-2-0.8-2.8,0l-19.5,19.5c-0.8,0.8-0.8,2,0,2.8
			C309.5,1113.7,310,1113.9,310.6,1113.9z"/>
		<path d="M394.8,1119.9c-0.4-0.4-0.9-0.6-1.4-0.6s-1,0.2-1.4,0.6l-14.4,14.4l-14.4-14.4c-0.8-0.8-2.1-0.8-2.8,0l-14.4,14.4
			l-14.4-14.4c-0.8-0.8-2-0.8-2.8,0l-19.5,19.5c-0.8,0.8-0.8,2,0,2.8c0.4,0.4,0.9,0.6,1.4,0.6s1-0.2,1.4-0.6l18.1-18.1l14.4,14.4
			c0.8,0.8,2,0.8,2.8,0l14.4-14.4l14.4,14.4c0.4,0.4,0.9,0.6,1.4,0.6s1-0.2,1.4-0.6l0,0l14.4-14.4l10.7,10.7c0.8,0.8,2,0.8,2.8,0
			s0.8-2,0-2.8L394.8,1119.9z"/>
	</g>
	<path class="st3" d="M412.6-131.6c-10.6-3.9-20-0.4-25.2,9.5c-4,7.6-9.9,15.4-23,15.4s-18.9-7.8-23-15.4
		c-5.2-9.8-14.7-13.4-25.2-9.5c-1,0.4-1.6,1.5-1.2,2.6c0.4,1,1.5,1.6,2.6,1.2c12.3-4.5,18.3,3.8,20.3,7.6c3.2,6,7.8,12.6,15.9,15.7
		c-9.5,4.1-16.2,13.6-16.2,24.5c0,14.7,12,26.7,26.7,26.7S391-65.3,391-80c0-11-6.7-20.4-16.2-24.5c8.2-3.1,12.8-9.7,15.9-15.7
		c2-3.8,8-12.1,20.3-7.6c1,0.4,2.2-0.1,2.6-1.2C414.1-130.1,413.6-131.3,412.6-131.6z M387.1-80c0,12.5-10.2,22.7-22.7,22.7
		S341.7-67.5,341.7-80s10.2-22.7,22.7-22.7S387.1-92.6,387.1-80z"/>
	<path class="st3" d="M407,999.8c-1.6-4.8-5.9-7.9-12.2-8.8c-11.3-1.5-20.8,2.8-29.4,8c-1.7-5.6-2.9-11.9-4-17.8
		c-3.2-16.5-6.2-32-18.1-31.3c-4.9,0.3-8.9,2.3-12,6c-5.3,6.3-6.8,16.2-7.1,23.3c-2.9-6.5-4.6-12.7-6.1-17.9
		c-1.9-6.8-3.3-11.7-6.5-13.5c-1-0.6-2.2-0.2-2.7,0.7c-0.6,1-0.2,2.2,0.7,2.7c1.8,1.1,3.1,5.8,4.6,11.2c2,7,4.7,16.6,10.4,26.4
		c0.5,0.8,1.4,1.2,2.3,0.9s1.5-1.2,1.4-2.1c0-0.2-1.9-19.9,6-29.1c2.4-2.8,5.4-4.3,9.2-4.6c7.8-0.5,10.6,10.8,13.9,28
		c1.2,6.4,2.5,13.1,4.4,19.2c-1,0.7-2.1,1.3-3.1,2c-6.8,4.4-13.3,8.6-19.7,9.6c-15.3,2.5-22.2-10.5-22.4-11c-0.5-1-1.7-1.4-2.7-0.9
		s-1.4,1.7-0.9,2.7c0.1,0.2,8.4,16.1,26.7,13.2c7.3-1.2,14.1-5.6,21.3-10.2c0.7-0.5,1.5-1,2.2-1.5c3,7.9,7.2,14.3,14.1,16.9
		c2.9,1.1,5.8,1.6,8.6,1.6c5.7,0,11.1-2.1,15.3-6.2C406.4,1012.4,408.7,1005.3,407,999.8z M398.4,1014.5c-2.5,2.4-9.4,7.5-19.8,3.7
		c-5.8-2.1-9.4-8-12-15.3c8.4-5.1,17.2-9.3,27.6-7.9c4.8,0.7,7.9,2.8,8.9,6.1C404.5,1005.1,402.6,1010.6,398.4,1014.5z"/>
	<path class="st3" d="M427.2,763.6l-9.8-2.5c-1.1-0.3-2.2,0.4-2.4,1.4s0.4,2.2,1.4,2.4l5.2,1.3c-1.7,0.9-3.6,1.4-5.6,1.4
		c-6.8,0-12.3-5.5-12.3-12.3v-61.7c0-0.1,0-0.1,0-0.2c-0.2-8.4-7.1-15.2-15.5-15.2c-5.9,0-11,3.3-13.6,8.1
		c-2.6-4.8-7.8-8.1-13.6-8.1c-5.8,0-10.9,3.2-13.5,7.9c-2.7-4.7-7.7-7.9-13.5-7.9c-1.1,0-2,0.9-2,2s0.9,2,2,2
		c6.4,0,11.5,5.2,11.5,11.5v61.5c0,1.1,0.9,2,2,2s2-0.9,2-2v-61.5c0-6.4,5.2-11.5,11.5-11.5s11.5,5.2,11.5,11.5v61.5
		c0,1.1,0.9,2,2,2s2-0.9,2-2v-60.6c0.1-0.3,0.2-0.6,0.2-0.9c0-6.4,5.2-11.5,11.5-11.5c6.4,0,11.5,5.2,11.5,11.5v61.5
		c0,9,7.3,16.3,16.3,16.3c2.6,0,5.2-0.6,7.5-1.8l-1.3,5c-0.3,1.1,0.4,2.2,1.4,2.4c0.2,0,0.3,0.1,0.5,0.1c0.9,0,1.7-0.6,1.9-1.5
		l2.5-9.8C428.9,765,428.3,763.9,427.2,763.6z"/>
	<path class="st3" d="M425.2,492.8c-0.8-0.8-2-0.8-2.8,0c-2.2,2.2-5,3.4-8.1,3.4c-2.1,0-4.1-0.6-5.8-1.6
		c13.6-14.1,16.8-29.6,14.7-38.5c-1.4-5.8-4.8-9.2-9.3-9.2l0,0c-5,0-8.6,2.1-11.1,4.6v-25c0-0.1,0-0.1,0-0.2
		c-0.2-8-6.7-14.4-14.8-14.4c-5.5,0-10.3,3.1-12.9,7.6c-2.5-4.5-7.4-7.6-12.9-7.6s-10.2,3-12.8,7.4c-2.6-4.4-7.3-7.4-12.8-7.4
		c-1.1,0-2,0.9-2,2s0.9,2,2,2c5.9,0,10.8,4.8,10.8,10.8v58.1c0,1.1,0.9,2,2,2s2-0.9,2-2v-58.1c0-5.9,4.8-10.8,10.8-10.8
		c5.9,0,10.8,4.8,10.8,10.8v58.1c0,1.1,0.9,2,2,2s2-0.9,2-2v-57.2c0.1-0.3,0.2-0.6,0.2-0.9c0-5.9,4.8-10.8,10.8-10.8
		c5.9,0,10.8,4.8,10.8,10.8v58.1c0,3.9,1.4,7.4,3.8,10.1c-4.9,4.4-10.9,8.6-18.4,12.3c-1,0.5-1.4,1.7-0.9,2.7
		c0.3,0.7,1.1,1.1,1.8,1.1c0.3,0,0.6-0.1,0.9-0.2c7.9-3.9,14.4-8.4,19.5-13.2c2.5,1.7,5.5,2.7,8.7,2.7c4.1,0,8-1.6,10.9-4.5
		C426,494.9,426,493.6,425.2,492.8z M413.9,450.9L413.9,450.9c3.6,0,5,4.3,5.4,6.1c1.9,8-1.2,22.1-13.9,35c-1.7-2-2.7-4.5-2.7-7.3
		V459C403.3,457.6,405.8,450.9,413.9,450.9z"/>
	<path class="st3" d="M422.6,344.5c-0.8-0.8-2-0.8-2.8,0c-2.1,2.1-5.1,3-8.2,2.5c-3.6-0.7-6.4-3.5-7.1-7.1c-0.5-2.9,0.3-5.7,2.2-7.8
		c0.2-0.1,0.3-0.2,0.5-0.4c7.8-7.8,11.8-18.7,11-29.8c-1.5-18.6-16.6-33.5-35.2-34.7c-10.6-0.7-20.6,2.9-28.3,10.2
		c-7.6,7.1-11.9,17.2-11.9,27.6c0,6.8,1.8,13.3,5.1,19c-1.5-0.4-3-0.6-4.6-0.6c-10.5,0-19,8.5-19,19s8.5,19,19,19s19-8.5,19-19
		c0-4.9-1.9-9.4-4.9-12.7c-0.1-0.2-0.2-0.3-0.3-0.4c-6.6-6.4-10.2-15-10.2-24.2c0-9.4,3.8-18.2,10.7-24.7c6.9-6.5,15.9-9.7,25.4-9.1
		c16.6,1.1,30.2,14.4,31.5,31c0.8,9.7-2.6,19.3-9.4,26.2c-0.2,0.1-0.3,0.2-0.5,0.3c-3.1,3-4.5,7.5-3.7,11.8c1,5.2,5.1,9.3,10.3,10.3
		c0.8,0.2,1.7,0.2,2.5,0.2c3.5,0,6.8-1.3,9.2-3.8C423.3,346.6,423.3,345.3,422.6,344.5z M343.1,357.3c-8.2,0-15-6.7-15-15
		c0-8.2,6.7-15,15-15s15,6.7,15,15S351.3,357.3,343.1,357.3z"/>
	<g class="st3">
		<path d="M247.6,402.4L247.6,402.4c0.3,0,0.5,0,0.7-0.1c0.8-0.3,1.4-1.1,1.4-2c0-1.2-0.9-2.1-2.1-2.1c-1.2,0-2.1,0.9-2.1,2.1
			C245.5,401.5,246.4,402.4,247.6,402.4z"/>
		<path d="M191.8,421.6c-0.7,0-1.3,0.6-1.3,1.3s0.6,1.3,1.3,1.3c0.6,0,1.1-0.4,1.3-1c0-0.1,0.1-0.2,0.1-0.3c0-0.1,0-0.2,0-0.2
			C193,422.1,192.4,421.6,191.8,421.6z"/>
		<path d="M229.9,430.7L229.9,430.7c0.2,0,0.4,0,0.6-0.1c0.5-0.2,0.8-0.7,0.8-1.2c0-0.1,0-0.2,0-0.3c0-0.2-0.1-0.4-0.3-0.5
			c-0.2-0.3-0.6-0.5-1.1-0.5s-0.9,0.2-1.1,0.6c-0.1,0.2-0.2,0.4-0.2,0.6c0,0.1,0,0.1,0,0.2C228.6,430.1,229.2,430.7,229.9,430.7z"/>
		<path d="M249.9,419.7c0,0.1,0,0.2,0,0.3c0,0.2,0.1,0.4,0.3,0.5c0.2,0.3,0.6,0.5,1.1,0.5c0.1,0,0.3,0,0.4-0.1
			c0.2-0.1,0.4-0.2,0.5-0.3c0.3-0.2,0.4-0.6,0.4-1c0-0.7-0.6-1.3-1.3-1.3l0,0c-0.2,0-0.4,0-0.5,0.1
			C250.2,418.7,249.9,419.2,249.9,419.7z"/>
		<path d="M258.1,429.8c-0.1,0-0.3,0-0.4,0.1c-0.2,0.1-0.4,0.2-0.5,0.3c-0.3,0.2-0.4,0.6-0.4,1c0,0.3,0.1,0.5,0.2,0.7
			s0.2,0.3,0.4,0.4c0.2,0.1,0.5,0.2,0.7,0.2c0.7,0,1.3-0.5,1.3-1.2v-0.1c0-0.2,0-0.3-0.1-0.5C259.2,430.2,258.7,429.8,258.1,429.8z"
			/>
		<path d="M288.8,410.8c-0.3,0-0.6,0.3-0.6,0.6c0,0.1,0,0.1,0,0.2c0.1,0.2,0.2,0.4,0.4,0.4h0.1c0.3,0,0.6-0.3,0.6-0.6
			C289.4,411.1,289.2,410.8,288.8,410.8z"/>
		<path d="M210.1,452.1c-0.1,0-0.1,0-0.2,0c-0.2,0-0.3,0.1-0.4,0.2c-0.1,0.1-0.2,0.3-0.2,0.4c0,0.3,0.3,0.6,0.6,0.6
			c0.2,0,0.4-0.1,0.5-0.3c0-0.1,0.1-0.2,0.1-0.3c0-0.1,0-0.2-0.1-0.3C210.3,452.3,210.2,452.2,210.1,452.1z"/>
		<path d="M215.9,424.4c0.1,0,0.3,0,0.4-0.1c0.1-0.1,0.2-0.3,0.2-0.5c0,0,0,0,0-0.1c0-0.3-0.3-0.5-0.6-0.5c-0.2,0-0.4,0.1-0.5,0.3
			c-0.1,0.1-0.1,0.2-0.1,0.3c0,0.1,0,0.2,0.1,0.3C215.4,424.3,215.6,424.4,215.9,424.4z"/>
		<path d="M194,441.1c-0.3,0-0.6,0.3-0.6,0.6c0,0.3,0.3,0.6,0.6,0.6c0.2,0,0.4-0.1,0.5-0.3c0.1-0.1,0.1-0.2,0.1-0.3
			c0-0.1,0-0.2-0.1-0.3C194.4,441.3,194.2,441.1,194,441.1z"/>
		<path d="M288,411.8l-16.7,17.1c0.2,0.1,0.3,0.2,0.4,0.4l16.7-17.1C288.3,412.1,288.1,412,288,411.8z"/>
		<path d="M270.1,429.4l-10.5,1.3c0,0.2,0.1,0.3,0.1,0.5v0.1l10.4-1.3c0-0.1-0.1-0.2-0.1-0.3C270.1,429.6,270.1,429.5,270.1,429.4z"
			/>
		<path d="M210.7,452.4c0,0.1,0.1,0.2,0.1,0.3c0,0.1,0,0.2-0.1,0.3l21.7,1.3v-0.1c0-0.2,0-0.3,0-0.4L210.7,452.4z"/>
		<path d="M256.7,432.1l-20.4,20.3c0.2,0.1,0.3,0.3,0.4,0.4l20.4-20.3C257,432.4,256.9,432.3,256.7,432.1z"/>
		<path d="M209.9,451.8h0.1l-1.4-9c-0.1,0.1-0.2,0.1-0.4,0.1c-0.1,0-0.1,0-0.2,0l1.4,9C209.6,451.9,209.7,451.8,209.9,451.8z"/>
		<path d="M194.8,441.4c0,0.1,0.1,0.2,0.1,0.3c0,0.1,0,0.2-0.1,0.3l12.6,0.3c0-0.1,0-0.2,0-0.2c0-0.1,0-0.2,0.1-0.4L194.8,441.4z"/>
		<path d="M236.1,452.6c-0.4-0.3-0.8-0.5-1.3-0.5l0,0c-0.2,0-0.4,0-0.6,0.1c-0.7,0.2-1.3,0.8-1.4,1.6c0,0.1,0,0.3,0,0.4s0,0.1,0,0.2
			c0.1,1.1,1,1.9,2.1,1.9c1.2,0,2.1-0.9,2.1-2.1c0-0.4-0.1-0.9-0.4-1.2C236.4,452.8,236.3,452.7,236.1,452.6z"/>
		<path d="M271.1,429.1C271.1,429.1,271,429.1,271.1,429.1c-0.3,0-0.5,0.1-0.6,0.3c-0.1,0.1-0.1,0.2-0.1,0.3c0,0.1,0,0.2,0.1,0.3
			c0.1,0.2,0.3,0.3,0.5,0.3c0.3,0,0.6-0.3,0.6-0.6c0-0.1,0-0.1,0-0.2C271.5,429.3,271.3,429.1,271.1,429.1z"/>
		<path d="M208.6,442.5c0.2-0.1,0.3-0.3,0.3-0.5c0-0.3-0.3-0.6-0.6-0.6c-0.2,0-0.4,0.1-0.5,0.3c-0.1,0.1-0.1,0.2-0.1,0.3
			c0,0.1,0,0.2,0.1,0.3c0.1,0.1,0.2,0.2,0.3,0.3c0.1,0,0.2,0.1,0.3,0.1C208.4,442.7,208.5,442.6,208.6,442.5z"/>
		<path d="M247.7,402.7l2.9,15.5c0.2-0.1,0.4-0.1,0.6-0.1l-2.9-15.5C248.1,402.7,247.9,402.7,247.7,402.7z"/>
		<path d="M249.9,420.7c-0.1-0.2-0.2-0.3-0.2-0.5l-18.3,8.3c0.1,0.2,0.2,0.3,0.2,0.5L249.9,420.7z"/>
		<path d="M230,431l4.2,20.9c0.2-0.1,0.4-0.1,0.6-0.1l-4.2-20.9C230.4,431,230.2,431,230,431z"/>
		<path d="M215,424.1c0-0.1,0-0.2,0-0.3c0-0.1,0-0.2,0.1-0.3l-21.7-0.8c0,0.1,0,0.2,0,0.2c0,0.1,0,0.2,0,0.4L215,424.1z"/>
		<path d="M228.6,428.5l-11.8-4.7c0,0.2-0.1,0.4-0.2,0.6l11.8,4.7C228.4,428.9,228.5,428.7,228.6,428.5z"/>
		<path d="M251.8,421.3l5.2,8.7c0.1-0.1,0.3-0.2,0.5-0.3l-5.2-8.7C252.2,421.1,252,421.2,251.8,421.3z"/>
	</g>
	<g class="st3">
		<path d="M222.6,558.5c0-0.2,0-0.4-0.1-0.5c-0.1-0.3-0.1-0.5-0.3-0.7c-0.4-0.8-1.3-1.4-2.3-1.4c-1.5,0-2.6,1.2-2.6,2.6
			c0,0.8,0.4,1.6,1,2c0.2,0.2,0.4,0.3,0.6,0.4c0.3,0.1,0.7,0.2,1,0.2c0.7,0,1.3-0.3,1.8-0.7c0.2-0.2,0.3-0.4,0.5-0.6
			C222.5,559.4,222.6,559,222.6,558.5z"/>
		<path d="M272.3,596.7c-0.1,0-0.1,0-0.2,0c-0.3,0-0.5,0.1-0.7,0.2c-0.3,0.1-0.6,0.3-0.9,0.6c-0.2,0.2-0.3,0.4-0.5,0.6
			c-0.2,0.4-0.4,0.8-0.4,1.3s0.1,1,0.4,1.4c0.1,0.2,0.3,0.4,0.5,0.6c0.5,0.4,1.1,0.7,1.8,0.7c1.5,0,2.6-1.2,2.6-2.6
			C274.9,597.9,273.7,596.7,272.3,596.7z"/>
		<path d="M227.7,636c0.2,0.1,0.4,0.3,0.5,0.6l42-35c-0.2-0.2-0.3-0.4-0.5-0.6L227.7,636z"/>
		<path d="M257.4,545.5c-0.1-0.2-0.2-0.5-0.3-0.7l-34.5,12.3c0.1,0.2,0.2,0.5,0.3,0.7L257.4,545.5z"/>
		<path d="M260.3,547.2l10.9,49.3c0.2-0.1,0.5-0.1,0.7-0.2L261,546.9C260.8,547.1,260.6,547.1,260.3,547.2z"/>
		<path d="M178.3,627.4c0.2,0.1,0.5,0.2,0.7,0.4l39.8-66.5c-0.2-0.1-0.4-0.2-0.6-0.4L178.3,627.4z"/>
		<path d="M257.7,545.4c0.4,0.8,1.3,1.4,2.3,1.4c0.1,0,0.1,0,0.2,0c0.3,0,0.5-0.1,0.7-0.2c1-0.4,1.7-1.3,1.7-2.5
			c0-1.5-1.2-2.6-2.6-2.6s-2.6,1.2-2.6,2.6c0,0.2,0,0.4,0.1,0.5C257.5,544.9,257.6,545.2,257.7,545.4z"/>
		<path d="M178,627.8c-0.1,0-0.3-0.1-0.5-0.1c-0.9,0-1.7,0.8-1.7,1.7s0.8,1.7,1.7,1.7s1.7-0.8,1.7-1.7c0-0.5-0.2-1-0.6-1.3
			C178.5,628,178.3,627.8,178,627.8z"/>
		<path d="M227.4,636.2c-0.1,0-0.1,0-0.2,0c-0.4,0-0.8,0.3-0.8,0.8s0.3,0.8,0.8,0.8c0.4,0,0.8-0.3,0.8-0.8c0-0.1,0-0.1,0-0.2
			C227.8,636.5,227.6,636.3,227.4,636.2z"/>
		<path d="M270.1,597.2L222.5,560c-0.1,0.2-0.3,0.4-0.5,0.6l47.6,37.2C269.8,597.6,269.9,597.4,270.1,597.2z"/>
	</g>
	<g class="st3">
		<path d="M187.3,719.8c-0.5,0-1,0.4-1.1,0.8c0,0.1,0,0.2,0,0.3l0,0c0,0.6,0.5,1.1,1.1,1.1s1.1-0.5,1.1-1.1c0-0.1,0-0.3-0.1-0.4
			c0-0.1-0.1-0.2-0.2-0.3C188,720,187.7,719.8,187.3,719.8z"/>
		<path d="M180.9,736L180.9,736c-0.2,0-0.3,0-0.4,0.1c-0.4,0.2-0.7,0.6-0.7,1.1c0,0.6,0.5,1.1,1.1,1.1c0.4,0,0.8-0.2,1-0.5
			c0.1-0.1,0.1-0.2,0.1-0.3s0-0.2,0-0.3C182.1,736.5,181.6,736,180.9,736z"/>
		<path d="M221,729.5c-0.1-0.1-0.2-0.1-0.3-0.1s-0.2,0-0.3,0c-0.6,0-1.1,0.5-1.1,1.1c0,0.2,0,0.3,0.1,0.5c0,0.1,0.1,0.2,0.2,0.3
			c0.2,0.2,0.5,0.4,0.9,0.4c0.6,0,1.1-0.5,1.1-1.1C221.5,730,221.3,729.7,221,729.5z"/>
		<path d="M250.3,696.5c-0.6,0-1.1,0.5-1.1,1.1c0,0.2,0,0.3,0.1,0.5c0,0.1,0.1,0.2,0.2,0.3c0.2,0.2,0.5,0.4,0.8,0.4
			c0.6,0,1-0.4,1.1-1v-0.1c0-0.1,0-0.1,0-0.2C251.3,696.9,250.9,696.5,250.3,696.5z"/>
		<path d="M274.9,692.3h-0.1c-0.1,0-0.1,0-0.2,0c-0.5,0.1-0.9,0.6-0.9,1.1c0,0.6,0.5,1.1,1.1,1.1s1.1-0.5,1.1-1.1
			S275.5,692.3,274.9,692.3z"/>
		<path d="M272.2,703.2c-0.6,0-1.1,0.5-1.1,1.1c0,0.5,0.3,0.9,0.8,1.1c0.1,0,0.2,0.1,0.3,0.1c0,0,0,0,0.1,0c0.6,0,1.1-0.5,1.1-1.1
			C273.3,703.7,272.8,703.2,272.2,703.2z"/>
		<path d="M178.4,723.4c0-0.1,0-0.2-0.1-0.3c0-0.1-0.1-0.2-0.2-0.3c-0.1-0.1-0.3-0.2-0.5-0.2c-0.4,0-0.7,0.3-0.7,0.7
			s0.3,0.7,0.7,0.7l0,0c0.1,0,0.2,0,0.3-0.1C178.2,724,178.4,723.7,178.4,723.4z"/>
		<path d="M257.9,697.3c0-0.2-0.1-0.3-0.2-0.5c-0.1-0.1-0.2-0.2-0.3-0.2c-0.1,0-0.2-0.1-0.3-0.1c-0.4,0-0.7,0.3-0.7,0.6v0.1
			c0,0.1,0,0.1,0,0.2c0.1,0.3,0.4,0.5,0.7,0.5h0.1c0.1,0,0.2-0.1,0.3-0.1C257.8,697.8,257.9,697.5,257.9,697.3z"/>
		<path d="M270.5,713.7c-0.1,0-0.2-0.1-0.3-0.1l0,0c-0.2,0-0.3,0.1-0.5,0.2c-0.1,0.1-0.2,0.2-0.2,0.3s-0.1,0.2-0.1,0.3
			c0,0.4,0.3,0.7,0.7,0.7s0.7-0.3,0.7-0.7C270.9,714,270.8,713.8,270.5,713.7z"/>
		<path d="M180.1,711.8c0.1,0,0.1,0,0.2-0.1c0.1-0.1,0.1-0.1,0.1-0.3l0,0c0-0.2-0.2-0.3-0.3-0.3c-0.2,0-0.3,0.1-0.3,0.3
			S180,711.8,180.1,711.8z"/>
		<path d="M191.9,716.3L191.9,716.3c0.2,0,0.3-0.1,0.3-0.2V716c0-0.2-0.1-0.3-0.3-0.3c-0.1,0-0.2,0-0.2,0.1
			c-0.1,0.1-0.1,0.1-0.1,0.2c0,0,0,0,0,0.1C191.6,716.2,191.7,716.3,191.9,716.3z"/>
		<path d="M182.3,720c-0.2,0-0.3,0.1-0.3,0.3l0,0c0,0.1,0.1,0.2,0.1,0.3c0.1,0,0.1,0.1,0.2,0.1c0.1,0,0.2-0.1,0.3-0.1
			c0-0.1,0.1-0.1,0.1-0.2v-0.1C182.5,720.1,182.4,720,182.3,720z"/>
		<path d="M274,683.7c0,0.1,0.1,0.2,0.2,0.3h0.1c0.1,0,0.1,0,0.2-0.1s0.1-0.2,0.1-0.3c0-0.2-0.1-0.3-0.3-0.3c-0.1,0-0.1,0-0.1,0
			C274.1,683.4,274,683.5,274,683.7L274,683.7z"/>
		<path d="M274.4,684.2h-0.1l0.4,8c0.1,0,0.1,0,0.2,0h0.1l-0.4-8C274.5,684.2,274.4,684.2,274.4,684.2z"/>
		<path d="M269.8,681.2c-0.1,0-0.2-0.1-0.3-0.2l-11.9,15.5c0.1,0,0.2,0.1,0.3,0.2L269.8,681.2z"/>
		<path d="M256.3,697.2l-4.7,0.2c0,0.1,0,0.1,0,0.2v0.1l4.8-0.2c0-0.1,0-0.1,0-0.2C256.3,697.3,256.3,697.2,256.3,697.2z"/>
		<path d="M273.9,683.6c0-0.1,0.1-0.2,0.2-0.3l-3.7-2.4c0,0.1-0.1,0.2-0.2,0.3L273.9,683.6z"/>
		<path d="M182,720.7c-0.1-0.1-0.1-0.2-0.2-0.3l-3.6,2.4c0.1,0.1,0.1,0.2,0.2,0.3L182,720.7z"/>
		<path d="M199.4,744.2c0.1,0.1,0.1,0.2,0.2,0.3l19.8-13.3c-0.1-0.1-0.1-0.2-0.2-0.3L199.4,744.2z"/>
		<path d="M182.2,737.5c0,0.1-0.1,0.2-0.1,0.3l15.9,6.9c0-0.1,0.1-0.2,0.1-0.3L182.2,737.5z"/>
		<path d="M180.8,735.8l-2.8-11.6c-0.1,0-0.2,0.1-0.3,0.1l2.8,11.6C180.6,735.9,180.7,735.8,180.8,735.8z"/>
		<path d="M193.2,717.9c-0.1-0.1-0.1-0.2-0.2-0.3l-4.6,2.5c0.1,0.1,0.1,0.2,0.2,0.3L193.2,717.9z"/>
		<path d="M182.8,720.2L182.8,720.2c0,0.2,0,0.2,0,0.3l3.3,0.4l0,0c0-0.1,0-0.2,0-0.3L182.8,720.2z"/>
		<path d="M244.6,701c0.1,0.1,0.1,0.2,0.2,0.3l4.5-2.8c-0.1-0.1-0.1-0.2-0.2-0.3L244.6,701z"/>
		<path d="M220.8,729.2c0.1,0,0.2,0.1,0.3,0.1l5.2-11c-0.1,0-0.2,0-0.3-0.1L220.8,729.2z"/>
		<path d="M191.4,715.9c0-0.1,0-0.2,0.1-0.3l-10.9-4.2c0,0.1,0,0.2-0.1,0.3L191.4,715.9C191.4,716,191.4,716,191.4,715.9z"/>
		<path d="M193,717.4c0-0.1,0.1-0.2,0.2-0.2l-0.9-1c0,0.1-0.1,0.2-0.2,0.2L193,717.4z"/>
		<path d="M243.2,702l-16.7,15.4c0.1,0.1,0.2,0.1,0.2,0.3l16.7-15.4C243.4,702.2,243.3,702.1,243.2,702z"/>
		<path d="M199.3,744.3c-0.1-0.1-0.3-0.2-0.5-0.2s-0.4,0.1-0.6,0.3c-0.1,0.1-0.1,0.2-0.1,0.3c0,0,0,0.1,0,0.2c0,0.4,0.3,0.7,0.7,0.7
			s0.7-0.3,0.7-0.7c0-0.1,0-0.2,0-0.2C199.4,744.5,199.4,744.4,199.3,744.3z"/>
		<path d="M244.5,701c-0.1-0.1-0.3-0.2-0.5-0.2c-0.4,0-0.7,0.3-0.7,0.7c0,0.1,0,0.3,0.1,0.4c0.1,0.1,0.1,0.2,0.2,0.2
			c0.1,0.1,0.2,0.1,0.4,0.1c0.4,0,0.7-0.3,0.7-0.7c0-0.1,0-0.1,0-0.2C244.6,701.2,244.6,701.1,244.5,701z"/>
		<path d="M193.1,717.5L193.1,717.5C193.1,717.6,193.1,717.6,193.1,717.5c0,0.2,0.1,0.3,0.2,0.4h0.1c0.2,0,0.3-0.1,0.3-0.3
			s-0.1-0.3-0.3-0.3h-0.1C193.3,717.3,193.2,717.4,193.1,717.5z"/>
		<path d="M226.4,717.5h-0.1c-0.2,0-0.3,0.1-0.3,0.3c0,0.1,0,0.2,0.1,0.2c0.1,0.1,0.1,0.1,0.2,0.1c0,0,0,0,0.1,0s0.3-0.2,0.3-0.3
			l0,0C226.6,717.7,226.5,717.6,226.4,717.5z"/>
		<path d="M269.9,681.1L269.9,681.1c0.1,0,0.1,0,0.2,0c0.1-0.1,0.2-0.2,0.2-0.3l0,0c0-0.2-0.1-0.3-0.3-0.3s-0.3,0.1-0.3,0.3
			c0,0.1,0,0.1,0,0.1C269.7,681,269.8,681.1,269.9,681.1z"/>
		<path d="M261.7,706.8c0,0.1-0.1,0.2-0.2,0.2l7.9,6.8c0.1-0.1,0.1-0.2,0.2-0.3L261.7,706.8z"/>
		<path d="M270.2,713.4c0.1,0,0.2,0,0.3,0.1l1.5-7.9c-0.1,0-0.2,0-0.3-0.1L270.2,713.4z"/>
		<path d="M257.7,698c-0.1,0.1-0.2,0.1-0.3,0.1l3.5,8.1c0.1-0.1,0.2-0.1,0.3-0.1L257.7,698z"/>
		<path d="M261.6,706.7L261.6,706.7c0-0.2-0.1-0.3-0.3-0.4l0,0c-0.1,0-0.2,0-0.3,0.1c0,0.1-0.1,0.1-0.1,0.2c0,0.2,0.1,0.3,0.3,0.3
			h0.1C261.5,706.9,261.6,706.8,261.6,706.7z"/>
	</g>
	<g class="st3">
		<path d="M241.7,841.6c0,0.2,0.1,0.5,0.2,0.7c0.1,0.1,0.1,0.2,0.2,0.3c0.2,0.2,0.5,0.3,0.9,0.3c0.6,0,1.1-0.4,1.2-0.9
			c0-0.1,0.1-0.2,0.1-0.4l0,0c0-0.7-0.6-1.3-1.3-1.3c-0.1,0-0.1,0-0.2,0c-0.1,0-0.2,0.1-0.4,0.1C242,840.6,241.7,841.1,241.7,841.6z
			"/>
		<path d="M270.2,865c0-0.3-0.1-0.6-0.3-0.8c-0.1-0.1-0.2-0.2-0.3-0.2c-0.1-0.1-0.3-0.1-0.4-0.2c-0.1,0-0.2,0-0.3,0c0,0,0,0-0.1,0
			c-0.5,0-0.8,0.3-1.1,0.7c-0.1,0.1-0.1,0.2-0.1,0.3s0,0.2,0,0.3c0,0.7,0.6,1.3,1.3,1.3c0.2,0,0.4-0.1,0.6-0.2
			c0.1-0.1,0.2-0.1,0.3-0.2C270,865.6,270.2,865.3,270.2,865z"/>
		<path d="M236.1,847.4c-0.1-0.1-0.1-0.2-0.2-0.3c-0.1-0.1-0.3-0.2-0.5-0.2c-0.3,0-0.6,0.2-0.8,0.5c0,0.1-0.1,0.2-0.1,0.3l0,0
			c0,0.5,0.4,0.8,0.8,0.8c0.1,0,0.2,0,0.3-0.1c0.1,0,0.2-0.1,0.3-0.2c0.1-0.1,0.2-0.3,0.2-0.5C236.2,847.7,236.2,847.5,236.1,847.4z
			"/>
		<path d="M232.3,828c0,0.5,0.4,0.8,0.8,0.8s0.8-0.4,0.8-0.8c0-0.1,0-0.2-0.1-0.3c0-0.1-0.1-0.2-0.2-0.3c-0.1-0.1-0.3-0.2-0.6-0.2
			c-0.2,0-0.5,0.1-0.6,0.3c-0.1,0.1-0.1,0.2-0.2,0.3C232.3,827.8,232.3,827.9,232.3,828z"/>
		<path d="M249.7,843.1c0.1,0.1,0.2,0.2,0.3,0.3s0.3,0.1,0.4,0.1c0.3,0,0.6-0.2,0.7-0.4c0.1-0.1,0.1-0.2,0.1-0.3v-0.1
			c0-0.1,0-0.2,0-0.3s-0.1-0.2-0.2-0.3c-0.2-0.2-0.4-0.2-0.6-0.2c-0.4,0-0.7,0.2-0.8,0.5c0,0.1-0.1,0.2-0.1,0.3c0,0,0,0,0,0.1
			C249.5,842.9,249.6,843,249.7,843.1z"/>
		<path d="M270.4,849.7c0-0.1,0-0.2,0-0.2v-0.1c-0.1-0.4-0.4-0.7-0.8-0.7c-0.1,0-0.1,0-0.2,0s-0.2,0.1-0.3,0.2
			c-0.1,0.1-0.1,0.1-0.2,0.2c-0.1,0.1-0.1,0.2-0.1,0.3v0.1c0,0.4,0.2,0.7,0.6,0.8c0.1,0,0.2,0,0.3,0h0.1
			C270,850.2,270.3,850,270.4,849.7z"/>
		<path d="M274.1,871.7c-0.1,0-0.2,0-0.3,0.1c-0.1,0-0.2,0.1-0.3,0.2c-0.1,0.1-0.2,0.3-0.2,0.6c0,0.5,0.4,0.8,0.8,0.8
			s0.8-0.4,0.8-0.8S274.6,871.7,274.1,871.7z"/>
		<path d="M233.6,892.5L233.6,892.5c0,0.1,0.1,0.3,0.2,0.3c0.1,0,0.1,0.1,0.2,0.1c0.2,0,0.4-0.2,0.4-0.4s-0.2-0.4-0.4-0.4
			C233.8,892.1,233.6,892.3,233.6,892.5z"/>
		<path d="M237.8,905.5c-0.1,0-0.2,0.1-0.3,0.1c-0.1,0.1-0.1,0.1-0.1,0.2v0.1c0.1,0.1,0.2,0.2,0.3,0.2c0.2,0,0.4-0.2,0.4-0.4
			C238.2,905.7,238,905.5,237.8,905.5z"/>
		<path d="M293.8,840.7c-0.2,0-0.4,0.2-0.4,0.4l0,0c0,0.1,0.1,0.3,0.2,0.3c0,0,0.1,0,0.2,0c0.2,0,0.4-0.2,0.4-0.4
			C294.2,840.9,294,840.7,293.8,840.7z"/>
		<path d="M216.9,818.5h0.1c0.1,0,0.2-0.2,0.2-0.3c0,0,0,0,0-0.1c0-0.2-0.2-0.4-0.4-0.4s-0.4,0.2-0.4,0.4
			C216.5,818.3,216.7,818.5,216.9,818.5z"/>
		<path d="M220.6,821c0,0.2,0.2,0.4,0.4,0.4c0.1,0,0.1,0,0.2-0.1c0.1-0.1,0.2-0.2,0.2-0.3l0,0c0-0.2-0.2-0.4-0.4-0.4
			c-0.1,0-0.1,0-0.1,0C220.7,820.8,220.6,820.9,220.6,821L220.6,821z"/>
		<path d="M220.4,820.9c0-0.1,0.1-0.2,0.2-0.3l-3.2-2.3c0,0.1-0.1,0.2-0.2,0.3L220.4,820.9z"/>
		<path d="M232.1,827.7c0-0.1,0.1-0.2,0.2-0.3l-10.8-6.2c0,0.1-0.1,0.2-0.2,0.3L232.1,827.7z"/>
		<path d="M234.4,847.8c0-0.1,0-0.2,0.1-0.4l-22.2-4v0.1c0,0.1,0,0.2-0.1,0.3L234.4,847.8z"/>
		<path d="M206.2,882.3l-10.3-22.8c-0.1,0.1-0.2,0.1-0.3,0.1l0,0l10.3,22.8l10,19.6c0.1-0.1,0.2-0.2,0.3-0.2L206.2,882.3z"/>
		<path d="M237.6,825.3c-0.1-0.1-0.2-0.2-0.2-0.3l-3.6,2.3c0.1,0.1,0.2,0.2,0.2,0.3L237.6,825.3z"/>
		<path d="M237.9,825.4L237.9,825.4l4.5,14.9c0.1,0,0.2-0.1,0.4-0.1l-4.5-14.9C238.2,825.4,238.1,825.4,237.9,825.4z"/>
		<path d="M241.7,842.4L236,847c0.1,0.1,0.2,0.2,0.2,0.3l5.7-4.6C241.9,842.6,241.8,842.5,241.7,842.4z"/>
		<path d="M196,858.8l15.5-14.8c-0.1-0.1-0.2-0.1-0.3-0.3l-15.5,14.8C195.9,858.6,196,858.7,196,858.8z"/>
		<path d="M216.4,902c0,0-0.1,0-0.2-0.1l0,0c-0.1,0-0.2,0.1-0.3,0.2c0,0.1-0.1,0.1-0.1,0.2c0,0.2,0.2,0.4,0.4,0.4
			c0.1,0,0.2-0.1,0.3-0.1c0.1-0.1,0.1-0.1,0.1-0.2l0,0v-0.1C216.6,902.2,216.5,902.1,216.4,902z"/>
		<path d="M195.8,859.3c0.1-0.1,0.1-0.2,0.1-0.3v-0.1c0-0.1-0.2-0.2-0.3-0.2l0,0c-0.2,0-0.4,0.2-0.4,0.4s0.1,0.3,0.3,0.3h0.1
			C195.7,859.4,195.7,859.4,195.8,859.3z"/>
		<path d="M211.7,843.8L211.7,843.8c0.2,0,0.3,0,0.4-0.1c0.1-0.1,0.1-0.1,0.1-0.2v-0.1c-0.1-0.1-0.2-0.2-0.3-0.2
			c-0.2,0-0.4,0.2-0.4,0.4v0.1C211.4,843.7,211.5,843.8,211.7,843.8z"/>
		<path d="M237.8,825.2L237.8,825.2c0.1,0,0.1,0,0.1,0c0.1,0,0.2-0.1,0.3-0.1c0.1-0.1,0.1-0.1,0.1-0.2c0-0.2-0.2-0.4-0.4-0.4
			s-0.4,0.2-0.4,0.4l0,0C237.6,825,237.7,825.1,237.8,825.2z"/>
		<path d="M216.8,902.3l16.8-9.4c-0.1-0.1-0.2-0.2-0.2-0.3l-16.8,9.4C216.7,902,216.8,902.1,216.8,902.3L216.8,902.3L216.8,902.3
			c0,0.2,0,0.3-0.1,0.4l20.5,3.3v-0.1c0-0.1,0-0.2,0.1-0.3L216.8,902.3z"/>
		<path d="M269.3,848.5l-5.6-11.8c-0.1,0.1-0.2,0.1-0.3,0.2l5.6,11.8C269.1,848.6,269.2,848.5,269.3,848.5z"/>
		<path d="M269.3,850.4l-0.5,13c0,0,0,0,0.1,0s0.2,0,0.3,0l0.5-13h-0.1C269.5,850.5,269.4,850.5,269.3,850.4z"/>
		<path d="M261.7,836.4c-0.1-0.1-0.1-0.2-0.2-0.3l-10.4,6c0.1,0.1,0.1,0.2,0.2,0.3L261.7,836.4z"/>
		<path d="M240.8,853.7l9-10.2c-0.1-0.1-0.2-0.2-0.3-0.3l-9,10.2C240.6,853.5,240.7,853.6,240.8,853.7z"/>
		<path d="M269.7,863.7c0.1,0.1,0.2,0.2,0.3,0.2l10.4-12.6c-0.1-0.1-0.2-0.1-0.3-0.2L269.7,863.7z"/>
		<path d="M293.3,841.2l-11.7,8.5c0.1,0.1,0.2,0.2,0.2,0.3l11.7-8.5C293.4,841.4,293.3,841.3,293.3,841.2z"/>
		<path d="M239.6,853.4l-3.4-4.9c-0.1,0.1-0.2,0.2-0.3,0.2l3.4,4.9C239.3,853.5,239.4,853.4,239.6,853.4z"/>
		<path d="M261.9,836.3c0.2,0.3,0.6,0.5,1,0.5c0.1,0,0.3,0,0.4-0.1c0.1,0,0.2-0.1,0.3-0.2c0.3-0.2,0.6-0.6,0.6-1.1
			c0-0.4-0.2-0.8-0.5-1c-0.1-0.1-0.2-0.1-0.3-0.2c-0.2-0.1-0.3-0.1-0.5-0.1c-0.7,0-1.3,0.6-1.3,1.3c0,0.2,0,0.3,0.1,0.5
			C261.7,836.1,261.8,836.2,261.9,836.3z"/>
		<path d="M240.4,853.6c-0.1-0.1-0.3-0.1-0.4-0.1c-0.1,0-0.2,0-0.3,0.1c-0.1,0-0.2,0.1-0.3,0.2c-0.1,0.1-0.2,0.3-0.2,0.6
			c0,0.5,0.4,0.8,0.8,0.8c0.3,0,0.5-0.2,0.7-0.4c0.1-0.1,0.1-0.2,0.1-0.3v-0.1c0-0.2-0.1-0.3-0.2-0.5
			C240.6,853.7,240.5,853.6,240.4,853.6z"/>
		<path d="M281.4,849.9c-0.1-0.1-0.3-0.2-0.5-0.2c-0.4,0-0.7,0.2-0.8,0.6c0,0.1,0,0.2,0,0.3v0.1c0,0.1,0.1,0.3,0.2,0.4
			c0.1,0.1,0.2,0.2,0.3,0.2c0.1,0.1,0.2,0.1,0.4,0.1c0.5,0,0.8-0.4,0.8-0.8c0-0.1,0-0.2-0.1-0.3C281.6,850,281.5,849.9,281.4,849.9z
			"/>
		<path d="M240.8,854.8l26.6,9.8c0-0.1,0.1-0.2,0.1-0.3l-26.6-9.8C241,854.6,240.9,854.7,240.8,854.8z"/>
		<path d="M273.7,871.6l-3.8-5.6c-0.1,0.1-0.2,0.2-0.3,0.2l3.8,5.6C273.5,871.7,273.6,871.7,273.7,871.6z"/>
		<path d="M249.3,842.7c0-0.1,0-0.2,0.1-0.3l-4.9-0.7c0,0.1,0,0.2-0.1,0.4L249.3,842.7L249.3,842.7z"/>
		<path d="M251.2,843.2l17.4,6.1c0-0.1,0.1-0.2,0.1-0.3l-17.3-6.1C251.3,843,251.3,843.1,251.2,843.2z"/>
		<path d="M270.6,849.3L270.6,849.3c0,0.2,0,0.3,0,0.4l9.3,0.9v-0.1c0-0.1,0-0.2,0-0.3L270.6,849.3z"/>
		<path d="M272,820.2c-0.1,0-0.2-0.1-0.3-0.2l-8.2,14.1c0.1,0.1,0.2,0.1,0.3,0.2L272,820.2z"/>
		<path d="M272.1,820L272.1,820c0.2,0,0.4-0.2,0.4-0.4s-0.2-0.4-0.4-0.4c-0.2,0-0.4,0.2-0.4,0.4c0,0.1,0,0.1,0.1,0.2
			C271.8,819.9,271.9,820,272.1,820z"/>
	</g>
	<g class="st3">
		<path d="M264,939.7C264,939.7,264.1,939.7,264,939.7c0.2,0,0.3,0,0.4-0.1c0.3-0.1,0.5-0.4,0.5-0.8c0-0.5-0.4-0.8-0.8-0.8
			s-0.8,0.4-0.8,0.8C263.2,939.3,263.6,939.6,264,939.7z"/>
		<path d="M266.1,951.4C266.1,951.4,266,951.4,266.1,951.4c-0.2,0-0.3,0-0.4,0.1c-0.3,0.1-0.5,0.4-0.5,0.8c0,0.1,0,0.3,0.1,0.4
			c0.1,0.1,0.1,0.2,0.2,0.3s0.2,0.1,0.3,0.1c0.1,0,0.1,0,0.2,0s0.1,0,0.2,0c0.4-0.1,0.7-0.4,0.7-0.8
			C266.9,951.8,266.5,951.4,266.1,951.4z"/>
		<path d="M220.1,992.8L220.1,992.8c0-0.2-0.1-0.3-0.2-0.3c0,0-0.1,0-0.2,0c-0.2,0-0.4,0.2-0.4,0.4l0,0c0,0.1,0.1,0.2,0.2,0.3l0,0
			c0.1,0,0.1,0.1,0.2,0.1c0.1,0,0.1,0,0.1,0l0,0C220,993.1,220.1,993,220.1,992.8C220.1,992.9,220.1,992.9,220.1,992.8z"/>
		<path d="M262.2,1030.9h-0.1c-0.1,0-0.2,0.1-0.3,0.3v0.1c0,0.2,0.2,0.4,0.4,0.4c0.2,0,0.4-0.2,0.4-0.4S262.4,1030.9,262.2,1030.9z"
			/>
		<path d="M264.3,1019c-0.1,0-0.1-0.1-0.2-0.1s-0.1,0-0.2,0c-0.1,0.1-0.2,0.2-0.2,0.3c0,0.2,0.2,0.4,0.4,0.4s0.4-0.2,0.4-0.4
			C264.4,1019.2,264.4,1019.1,264.3,1019z"/>
		<path d="M219.4,993.2c-0.1-0.1-0.2-0.2-0.2-0.3l-19.1,8.9c0.1,0.1,0.1,0.2,0.2,0.3L219.4,993.2z"/>
		<path d="M179.3,1013.4c0.1,0.1,0.2,0.2,0.2,0.3l19.9-11.1c-0.1-0.1-0.2-0.2-0.2-0.3L179.3,1013.4z"/>
		<path d="M178.3,1013.7l-7.9,1.9c0,0.1,0.1,0.2,0.1,0.4l7.9-1.9C178.4,1014,178.3,1013.9,178.3,1013.7L178.3,1013.7z"/>
		<path d="M220.3,993c0,0.1-0.1,0.2-0.2,0.3l41.7,37.7c0-0.1,0.1-0.2,0.3-0.3L220.3,993z"/>
		<path d="M170.3,1015.7c-0.2-0.5-0.7-0.8-1.2-0.8c-0.7,0-1.3,0.6-1.3,1.3s0.6,1.3,1.3,1.3s1.3-0.6,1.3-1.3v-0.1
			C170.3,1015.9,170.3,1015.8,170.3,1015.7z"/>
		<path d="M179.1,1013.5c-0.1,0-0.1-0.1-0.2-0.1c-0.2,0-0.3,0.1-0.4,0.3v0.1c0,0.1,0,0.2,0.1,0.3c0.1,0.1,0.2,0.1,0.3,0.1
			c0.2,0,0.4-0.2,0.4-0.4l0,0C179.3,1013.6,179.2,1013.5,179.1,1013.5z"/>
		<path d="M265.8,953.2l-1.9,65.6c0.1,0,0.1,0,0.2,0s0.1,0,0.2,0l1.9-65.6c-0.1,0-0.1,0-0.2,0C265.9,953.2,265.9,953.2,265.8,953.2z
			"/>
		<path d="M264.1,939.9L264.1,939.9l1.6,11.4c0.1,0,0.2-0.1,0.3-0.1l0,0l-1.7-11.4C264.3,939.9,264.2,939.9,264.1,939.9z"/>
		<path d="M220.3,992.7l45.1-39.7c-0.1-0.1-0.2-0.2-0.2-0.3l-45.1,39.7C220.2,992.4,220.3,992.5,220.3,992.7z"/>
		<path d="M211.7,1030.4l8.2-37.1h-0.1c-0.1,0-0.2,0-0.3-0.1l-8.2,37v0.1v0.1h-0.1c-0.1,0-0.2,0-0.2,0v-0.1v-0.1l-10.8-27.8
			c-0.1,0.1-0.2,0.1-0.3,0.1l10.8,27.8v0.1v0.1c-0.4,0.2-0.7,0.7-0.7,1.2c0,0.7,0.6,1.3,1.3,1.3s1.3-0.6,1.3-1.3
			C212.6,1031.2,212.3,1030.7,211.7,1030.4L211.7,1030.4L211.7,1030.4z"/>
		<path d="M200,1002.4c0-0.1,0.1-0.1,0.1-0.2l0,0c0-0.1-0.1-0.2-0.2-0.3c-0.1,0-0.1-0.1-0.2-0.1c-0.2,0-0.4,0.2-0.4,0.4l0,0
			c0,0.1,0.1,0.3,0.2,0.3h0.1c0,0,0,0,0.1,0C199.8,1002.5,199.9,1002.5,200,1002.4z"/>
	</g>
	<g class="st3">
		<path d="M169.9,1228.4c0.1,0.1,0.2,0.1,0.3,0.2c0.2,0.1,0.3,0.1,0.5,0.1c0.7,0,1.3-0.6,1.3-1.3c0-0.5-0.2-0.9-0.6-1.1
			c-0.1-0.1-0.2-0.1-0.3-0.1s-0.2,0-0.3,0c-0.7,0-1.3,0.6-1.3,1.3C169.5,1227.9,169.7,1228.2,169.9,1228.4z"/>
		<path d="M250.1,1252.4c-0.1,0-0.2,0-0.3,0s-0.2,0.1-0.3,0.1c-0.4,0.2-0.7,0.6-0.7,1.1c0,0.3,0.1,0.5,0.2,0.7
			c0.1,0.1,0.2,0.2,0.2,0.3c0.2,0.2,0.5,0.3,0.8,0.3c0.7,0,1.3-0.6,1.3-1.3C251.4,1253,250.8,1252.4,250.1,1252.4z"/>
		<path d="M178.4,1198.5c0.1,0,0.1,0,0.2,0c0.1,0,0.2-0.1,0.3-0.2c0.2-0.2,0.3-0.4,0.3-0.6s-0.1-0.3-0.1-0.5
			c-0.1-0.1-0.2-0.2-0.3-0.2c-0.1-0.1-0.3-0.1-0.4-0.1c-0.5,0-0.8,0.4-0.8,0.8S178,1198.5,178.4,1198.5z"/>
		<path d="M183.5,1205.6c0-0.3-0.2-0.6-0.5-0.7c-0.1-0.1-0.2-0.1-0.4-0.1h-0.1c-0.1,0-0.2,0.1-0.3,0.1c-0.2,0.1-0.3,0.4-0.3,0.7
			c0,0.3,0.2,0.6,0.4,0.7c0.1,0.1,0.2,0.1,0.4,0.1l0,0C183.2,1206.4,183.5,1206.1,183.5,1205.6z"/>
		<path d="M173.8,1220.1c0.1,0.1,0.2,0.1,0.3,0.2c0.1,0,0.1,0,0.2,0c0.5,0,0.8-0.4,0.8-0.8c0-0.2-0.1-0.5-0.3-0.6
			c-0.1-0.1-0.2-0.1-0.3-0.2c-0.1,0-0.1,0-0.2,0c-0.5,0-0.8,0.4-0.8,0.8C173.6,1219.7,173.7,1219.9,173.8,1220.1z"/>
		<path d="M165.4,1249.3c-0.5,0-0.8,0.4-0.8,0.8c0,0.1,0,0.2,0,0.2c0,0.1,0.1,0.2,0.2,0.3c0.2,0.2,0.4,0.3,0.6,0.3
			c0.4,0,0.8-0.3,0.8-0.7v-0.1c0-0.1,0-0.2,0-0.2C166.1,1249.6,165.8,1249.3,165.4,1249.3z"/>
		<path d="M188.1,1244.5c-0.4,0-0.8,0.3-0.8,0.8c0,0,0,0,0,0.1s0,0.2,0.1,0.3c0.1,0.3,0.4,0.5,0.8,0.5c0.3,0,0.6-0.2,0.7-0.5
			c0-0.1,0.1-0.2,0.1-0.3l0,0C188.9,1244.9,188.5,1244.5,188.1,1244.5z"/>
		<path d="M222.3,1245.3c-0.4,0-0.7,0.3-0.8,0.7v0.1c0,0.1,0,0.2,0,0.2c0.1,0.3,0.4,0.6,0.8,0.6c0.3,0,0.6-0.2,0.7-0.4
			c0.1-0.1,0.1-0.2,0.1-0.4l0,0C223.1,1245.6,222.8,1245.3,222.3,1245.3z"/>
		<path d="M235.5,1258.5L235.5,1258.5c-0.2,0-0.3,0-0.4,0.1c-0.3,0.1-0.5,0.4-0.5,0.8c0,0.5,0.4,0.8,0.8,0.8c0.4,0,0.7-0.3,0.8-0.7
			v-0.1c0-0.1,0-0.2,0-0.2C236.1,1258.8,235.9,1258.5,235.5,1258.5z"/>
		<path d="M195.8,1246.7c-0.1,0-0.2,0.1-0.3,0.2c0,0.1-0.1,0.1-0.1,0.2s0,0.1,0.1,0.2s0.2,0.2,0.3,0.2s0.2-0.1,0.3-0.1
			c0.1-0.1,0.1-0.1,0.1-0.2v-0.1C196.1,1246.8,196,1246.7,195.8,1246.7z"/>
		<path d="M182.3,1246.1c-0.2,0-0.3,0.1-0.4,0.3l0,0c0,0.1,0.1,0.2,0.1,0.3c0.1,0,0.1,0.1,0.2,0.1c0.1,0,0.3-0.1,0.3-0.2
			c0,0,0-0.1,0-0.2s0-0.1-0.1-0.2C182.5,1246.1,182.4,1246.1,182.3,1246.1z"/>
		<path d="M248.1,1248.8L248.1,1248.8c0.2,0,0.3,0,0.3-0.1c0.1-0.1,0.1-0.1,0.1-0.2c0-0.2-0.2-0.4-0.4-0.4c-0.1,0-0.1,0-0.2,0
			c-0.1,0.1-0.2,0.2-0.2,0.3l0,0C247.8,1248.6,247.9,1248.7,248.1,1248.8z"/>
		<path d="M242.8,1247.3c0.1,0,0.2-0.1,0.3-0.2c0-0.1,0.1-0.1,0.1-0.2s0-0.1,0-0.2c-0.1-0.1-0.2-0.2-0.3-0.2s-0.3,0.1-0.3,0.2
			c0,0,0,0.1,0,0.2s0,0.2,0.1,0.2C242.6,1247.2,242.7,1247.3,242.8,1247.3z"/>
		<path d="M170.1,1228.8c-0.1-0.1-0.2-0.1-0.3-0.2l-7.9,12c0.1,0,0.2,0.1,0.3,0.2L170.1,1228.8z"/>
		<path d="M171.8,1249.4l-5.4,0.5c0,0.1,0,0.2,0,0.3v0.1l5.4-0.5c0-0.1,0-0.1,0-0.2C171.8,1249.5,171.8,1249.5,171.8,1249.4z"/>
		<path d="M161.2,1242.5c-0.1,0-0.2-0.1-0.3-0.2l-7.4,13.6c0.1,0,0.2,0.1,0.3,0.2L161.2,1242.5z"/>
		<path d="M154,1256.2c0.1,0.1,0.1,0.2,0.2,0.3l10.5-5.8c-0.1-0.1-0.1-0.2-0.2-0.3L154,1256.2z"/>
		<path d="M173.7,1249c0.1,0.1,0.1,0.2,0.1,0.3l8-2.6c-0.1-0.1-0.1-0.2-0.1-0.3L173.7,1249z"/>
		<path d="M187.1,1245.3l-4.3,0.9c0,0.1,0.1,0.2,0.1,0.2v0.1l4.3-0.9C187.1,1245.6,187.1,1245.5,187.1,1245.3L187.1,1245.3z"/>
		<path d="M174.1,1220.4c-0.1,0-0.2-0.1-0.3-0.2l-2.6,5.9c0.1,0,0.2,0.1,0.3,0.1L174.1,1220.4z"/>
		<path d="M179.2,1197.1l3.4-3.2c-0.1-0.1-0.2-0.1-0.3-0.3l-3.4,3.2C179,1196.9,179.1,1197,179.2,1197.1z"/>
		<path d="M249,1254.5l-4.1,3.8c0.1,0.1,0.2,0.2,0.2,0.3l4.1-3.8C249.1,1254.7,249,1254.6,249,1254.5z"/>
		<path d="M182.6,1206.6c-0.1,0-0.2-0.1-0.4-0.1l-7.5,12c0.1,0,0.2,0.1,0.3,0.2L182.6,1206.6z"/>
		<path d="M244.1,1258.6l-7.6,0.5c0,0.1,0,0.2,0,0.2v0.1l7.7-0.5C244.2,1258.8,244.1,1258.8,244.1,1258.6
			C244.1,1258.7,244.1,1258.7,244.1,1258.6z"/>
		<path d="M247.6,1248.4c0-0.1,0.1-0.2,0.1-0.3l-4.4-1.2v0.1c0,0.1,0,0.2-0.1,0.3L247.6,1248.4z"/>
		<path d="M248.2,1249l1.3,3.4c0.1-0.1,0.2-0.1,0.3-0.1l-1.3-3.4C248.4,1248.9,248.3,1248.9,248.2,1249z"/>
		<path d="M235.5,1258.3L235.5,1258.3l-0.6-8.1c-0.1,0-0.2,0-0.3,0c0,0,0,0-0.1,0l0.7,8.1C235.2,1258.3,235.3,1258.3,235.5,1258.3z"
			/>
		<path d="M242.4,1247.2c0-0.1-0.1-0.2-0.1-0.3v-0.1l-6.8,2c0.1,0.1,0.1,0.2,0.1,0.3L242.4,1247.2z"/>
		<path d="M182.7,1193.9v10.7c0.1,0,0.3,0,0.4,0.1v-10.8c-0.1,0-0.1,0-0.2,0C182.8,1193.9,182.8,1193.9,182.7,1193.9z"/>
		<path d="M189.1,1245.4c0,0.1,0,0.2-0.1,0.4l6.3,1.5v-0.1c0-0.1,0-0.2,0.1-0.2L189.1,1245.4z"/>
		<path d="M178.7,1198.6l3.5,6.2c0.1-0.1,0.2-0.1,0.3-0.1l-3.5-6.2C178.9,1198.5,178.8,1198.6,178.7,1198.6z"/>
		<path d="M221.3,1246l-24.9,0.9v0.1c0,0.1,0,0.2,0,0.2l25-0.9c0-0.1,0-0.2,0-0.3C221.3,1246.1,221.3,1246,221.3,1246z"/>
		<path d="M223.2,1246.5l10.3,2.7c0-0.1,0-0.2,0.1-0.4l-10.3-2.7C223.3,1246.3,223.3,1246.4,223.2,1246.5z"/>
		<path d="M161.3,1242.3c0.1,0,0.1,0,0.2,0c0.5,0,0.8-0.4,0.8-0.8c0-0.2-0.1-0.4-0.2-0.6c-0.1-0.1-0.2-0.2-0.3-0.2s-0.2,0-0.3,0
			c-0.5,0-0.8,0.4-0.8,0.8c0,0.2,0.1,0.5,0.3,0.6C161.1,1242.2,161.2,1242.3,161.3,1242.3z"/>
		<path d="M153.9,1256.3C153.8,1256.3,153.8,1256.3,153.9,1256.3c-0.2-0.2-0.3-0.2-0.4-0.3c-0.1,0-0.2,0-0.2,0
			c-0.5,0-0.8,0.4-0.8,0.8c0,0.5,0.4,0.8,0.8,0.8c0.5,0,0.8-0.4,0.8-0.8c0-0.1,0-0.1,0-0.2C154,1256.5,153.9,1256.4,153.9,1256.3z"
			/>
		<path d="M173.5,1249.1c-0.1-0.2-0.4-0.4-0.7-0.4c-0.4,0-0.7,0.3-0.8,0.6c0,0.1,0,0.1,0,0.2s0,0.1,0,0.2c0.1,0.4,0.4,0.6,0.8,0.6
			c0.5,0,0.8-0.4,0.8-0.8v-0.1C173.6,1249.3,173.6,1249.2,173.5,1249.1z"/>
		<path d="M234.8,1250.1c0.3-0.1,0.5-0.4,0.5-0.8l0,0c0-0.1,0-0.2-0.1-0.3c-0.1-0.3-0.4-0.4-0.7-0.4s-0.6,0.2-0.7,0.4
			c-0.1,0.1-0.1,0.2-0.1,0.4l0,0c0,0.4,0.3,0.8,0.7,0.8h0.1C234.6,1250.1,234.7,1250.1,234.8,1250.1z"/>
		<path d="M182.9,1193.7c0.1,0,0.2,0,0.2-0.1c0.1-0.1,0.2-0.2,0.2-0.3s-0.1-0.2-0.2-0.3H183h-0.1c-0.2,0-0.4,0.2-0.4,0.4v0.1
			C182.6,1193.6,182.7,1193.7,182.9,1193.7z"/>
		<path d="M244.7,1258.4h-0.1c-0.1,0-0.3,0.1-0.3,0.2v0.1c0,0.1,0,0.2,0.1,0.2c0.1,0.1,0.2,0.2,0.3,0.2c0.2,0,0.4-0.2,0.4-0.4v-0.1
			C244.9,1258.6,244.8,1258.5,244.7,1258.4z"/>
	</g>
	<g class="st3">
		<path d="M234.1,1087.4c-0.5,0-1,0.3-1.2,0.7c-0.1,0.1-0.1,0.2-0.1,0.4c0,0.1,0,0.2,0,0.2c0,0.7,0.6,1.3,1.3,1.3
			c0.6,0,1.1-0.4,1.3-1c0-0.1,0-0.2,0-0.4l0,0C235.5,1088,234.9,1087.4,234.1,1087.4z"/>
		<path d="M206.5,1102.3c0-0.4-0.3-0.7-0.6-0.8c-0.1,0-0.2,0-0.3,0h-0.1c-0.4,0.1-0.7,0.4-0.7,0.9c0,0.2,0.1,0.4,0.2,0.6
			c0.1,0.1,0.2,0.2,0.3,0.2s0.2,0.1,0.3,0.1s0.2,0,0.4-0.1c0.1-0.1,0.2-0.1,0.3-0.2C206.4,1102.7,206.5,1102.5,206.5,1102.3z"/>
		<path d="M183.1,1108.5c0-0.3-0.2-0.6-0.5-0.8c-0.1-0.1-0.2-0.1-0.4-0.1l0,0c-0.5,0-0.9,0.4-0.9,0.9c0,0.1,0,0.2,0,0.3
			c0,0.1,0.1,0.2,0.2,0.3c0.2,0.2,0.4,0.3,0.6,0.3C182.7,1109.3,183.1,1108.9,183.1,1108.5z"/>
		<path d="M266.3,1092.5c-0.1,0-0.2,0.1-0.3,0.2c0,0.1-0.1,0.1-0.1,0.2s0,0.1,0,0.1c0.1,0.1,0.2,0.2,0.4,0.2c0.2,0,0.4-0.2,0.4-0.4
			C266.7,1092.7,266.5,1092.5,266.3,1092.5z"/>
		<path d="M216.5,1116.1L216.5,1116.1c-0.2,0-0.3,0.1-0.4,0.2v0.1c0,0.2,0.2,0.4,0.4,0.4s0.4-0.2,0.4-0.4
			C216.9,1116.3,216.7,1116.1,216.5,1116.1z"/>
		<path d="M191.9,1084.3c0.1,0,0.2,0,0.3-0.1s0.1-0.2,0.1-0.3v-0.1c0-0.2-0.2-0.3-0.4-0.3s-0.3,0.1-0.4,0.3v0.1c0,0.1,0,0.2,0.1,0.3
			C191.7,1084.2,191.8,1084.3,191.9,1084.3z"/>
		<path d="M197.4,1086.4c0.2,0,0.4-0.2,0.4-0.4l0,0c0-0.1-0.1-0.3-0.2-0.3c-0.1,0-0.1-0.1-0.2-0.1c-0.1,0-0.2,0-0.3,0.1
			s-0.1,0.2-0.1,0.3v0.1C197.1,1086.3,197.2,1086.4,197.4,1086.4z"/>
		<path d="M173.7,1147.2h-0.1c-0.1,0-0.2,0-0.3,0.1s-0.1,0.2-0.1,0.3c0,0.2,0.2,0.4,0.4,0.4s0.4-0.2,0.4-0.4
			C173.9,1147.4,173.8,1147.3,173.7,1147.2z"/>
		<path d="M196.8,1086.1L196.8,1086.1c0-0.2,0-0.3,0.1-0.4l-4.5-1.8l0,0c0,0.1,0,0.3-0.1,0.4L196.8,1086.1z"/>
		<path d="M207,1080.7c-0.1-0.1-0.2-0.2-0.2-0.3l-9,5.3c0.1,0.1,0.2,0.2,0.2,0.3L207,1080.7z"/>
		<path d="M173.6,1147L173.6,1147l-5.2-29.4c-0.1,0.1-0.2,0.1-0.3,0.1H168l5.3,29.4C173.4,1147.1,173.5,1147,173.6,1147z"/>
		<path d="M191.4,1084.2c-0.1-0.1-0.1-0.2-0.1-0.3l0,0l-3.4,1.2c0.1,0.1,0.1,0.2,0.1,0.4L191.4,1084.2z"/>
		<path d="M207.9,1080.2c0,0.1,0,0.3-0.1,0.3l24.8,7.9c0-0.1,0.1-0.3,0.1-0.4L207.9,1080.2L207.9,1080.2z"/>
		<path d="M187.5,1086L187.5,1086c-0.1,0-0.3-0.1-0.4-0.1l-4.8,21.5c0.1,0,0.3,0,0.4,0.1L187.5,1086z"/>
		<path d="M235.7,1088.8L235.7,1088.8c0,0.1,0,0.3,0,0.4l30.1,3.9v-0.1c0-0.1,0-0.2,0.1-0.3L235.7,1088.8z"/>
		<path d="M168.4,1116.7c0.1,0.1,0.2,0.2,0.2,0.3l12.8-7.8c-0.1-0.1-0.2-0.2-0.2-0.3L168.4,1116.7z"/>
		<path d="M187.5,1085.8L187.5,1085.8c0.2,0,0.4-0.2,0.4-0.3l0,0c0-0.1-0.1-0.2-0.2-0.3c-0.1,0-0.1-0.1-0.2-0.1
			c-0.2,0-0.4,0.2-0.4,0.4c0,0.1,0,0.2,0.1,0.2C187.2,1085.7,187.3,1085.8,187.5,1085.8z"/>
		<path d="M168.3,1117.4c0.1-0.1,0.1-0.2,0.1-0.3l0,0c0-0.1-0.1-0.3-0.2-0.3c0,0-0.1,0-0.2,0c-0.2,0-0.4,0.2-0.4,0.4
			c0,0.2,0.1,0.3,0.3,0.4h0.1C168.2,1117.5,168.3,1117.5,168.3,1117.4z"/>
		<path d="M207.1,1080.5C207.2,1080.5,207.2,1080.5,207.1,1080.5c0.1,0,0.1,0.1,0.2,0.1c0.1,0,0.1,0,0.2,0c0,0,0.1,0,0.1-0.1
			c0.1-0.1,0.1-0.2,0.1-0.3v-0.1c0-0.2-0.2-0.3-0.4-0.3s-0.4,0.2-0.4,0.4l0,0C207,1080.4,207,1080.5,207.1,1080.5z"/>
		<path d="M187.2,1131.1L183,1147l0,0c0.1,0,0.2,0,0.3,0.1l4.2-16c0,0,0,0-0.1,0C187.4,1131.2,187.3,1131.1,187.2,1131.1z"/>
		<path d="M188.4,1123.6l-1,6.5h0.1c0.1,0,0.2,0,0.3,0.1l1-6.5h-0.1C188.6,1123.7,188.5,1123.6,188.4,1123.6z"/>
		<path d="M207.1,1080.7l-1.6,20.5h0.1c0.1,0,0.2,0,0.3,0l1.6-20.5h-0.1C207.3,1080.8,207.2,1080.8,207.1,1080.7z"/>
		<path d="M183,1147.2h-0.1c-0.2,0-0.3,0.2-0.3,0.4c0,0.2,0.2,0.4,0.4,0.4s0.4-0.2,0.4-0.4c0-0.1,0-0.2-0.1-0.3
			C183.2,1147.3,183.1,1147.2,183,1147.2z"/>
		<path d="M187.5,1130.2h-0.1c-0.1,0.1-0.2,0.2-0.2,0.4c0,0.1,0,0.2,0.1,0.3c0.1,0.1,0.2,0.1,0.3,0.1h0.1c0.2,0,0.3-0.2,0.3-0.4
			c0-0.1-0.1-0.2-0.1-0.3C187.7,1130.3,187.6,1130.2,187.5,1130.2z"/>
		<path d="M188.8,1122.7h-0.1c-0.2,0-0.4,0.2-0.4,0.4c0,0.1,0,0.2,0.1,0.3c0.1,0.1,0.2,0.1,0.3,0.1h0.1c0.2,0,0.3-0.2,0.3-0.4v-0.1
			C189,1122.9,188.9,1122.8,188.8,1122.7z"/>
		<path d="M206.4,1103c-0.1,0.1-0.2,0.2-0.3,0.2l9.9,13c0.1-0.1,0.2-0.2,0.3-0.2L206.4,1103z"/>
		<path d="M198,1112.8l-9.1,9.8c0.1,0.1,0.2,0.2,0.3,0.3l9.1-9.8c-0.1,0-0.1-0.1-0.1-0.1C198.1,1112.9,198,1112.8,198,1112.8z"/>
		<path d="M198.7,1112L198.7,1112c0.1,0,0.2,0.1,0.3,0.2l6.2-8.9c-0.1-0.1-0.2-0.1-0.3-0.2L198.7,1112z"/>
		<path d="M198.9,1112.4c0-0.1-0.1-0.2-0.2-0.2h-0.1l0,0c-0.2,0-0.4,0.2-0.4,0.4v0.1c0,0.1,0.1,0.1,0.1,0.2c0,0,0.1,0.1,0.2,0.1h0.1
			h0.1c0.2,0,0.3-0.2,0.3-0.4C198.9,1112.5,198.9,1112.5,198.9,1112.4L198.9,1112.4z"/>
	</g>
</g>
<g>
	<g>
		<path class="st5" d="M62.5,19c0.4,0,0.8-0.2,1.1-0.5c0.1-0.1,0.2-0.2,0.3-0.4c0.1-0.2,0.2-0.5,0.2-0.7c0-0.6-0.3-1.1-0.8-1.3
			C63.2,16,63,16,62.9,15.9c-0.1,0-0.2,0-0.4,0c-0.8,0-1.4,0.6-1.5,1.3c0,0.1,0,0.2,0,0.2c0,0.1,0,0.1,0,0.2
			C61.1,18.4,61.7,19,62.5,19z"/>
		<path class="st5" d="M72.6,39.6c-0.1,0-0.2,0-0.4,0c0,0,0,0-0.1,0c-0.6,0-1.2,0.4-1.4,1c0,0.1-0.1,0.3-0.1,0.4v0.1
			c0,0.9,0.7,1.5,1.5,1.5c0.9,0,1.5-0.7,1.5-1.5C73.8,40.4,73.3,39.8,72.6,39.6z"/>
		<path class="st5" d="M2,33.1c-0.1-0.1-0.1-0.3-0.3-0.4c-0.2-0.2-0.4-0.3-0.7-0.3c-0.5,0-1,0.4-1,1s0.4,1,1,1c0.5,0,0.9-0.4,1-0.9
			v-0.1C2.1,33.3,2.1,33.2,2,33.1L2,33.1z"/>
		<path class="st5" d="M73.8,24.7c-0.2,0-0.5,0.1-0.6,0.2c-0.1,0.1-0.2,0.2-0.3,0.4c-0.1,0.1-0.1,0.3-0.1,0.4c0,0.4,0.3,0.8,0.7,0.9
			c0.1,0,0.2,0.1,0.3,0.1h0.1c0.5-0.1,0.9-0.5,0.9-1C74.8,25.2,74.3,24.7,73.8,24.7z"/>
		<path class="st5" d="M98.1,9.8c-0.3,0-0.6,0.2-0.8,0.4c-0.1,0.1-0.1,0.3-0.2,0.4c0,0.1,0,0.1,0,0.2c0,0.5,0.4,1,1,1s1-0.4,1-1
			S98.7,9.8,98.1,9.8z"/>
		<path class="st5" d="M25,30.9c-0.2,0-0.3,0.1-0.4,0.2c0,0.1-0.1,0.1-0.1,0.2c0,0.1,0,0.2,0.1,0.2c0.1,0.1,0.2,0.2,0.4,0.2
			c0.1,0,0.3-0.1,0.3-0.2c0.1-0.1,0.1-0.2,0.1-0.3s0-0.1,0-0.2C25.3,31,25.1,30.9,25,30.9z"/>
		<path class="st5" d="M89,6.6L89,6.6c-0.2,0-0.3,0.1-0.4,0.2c0,0.1,0,0.1,0,0.2c0,0.2,0.2,0.4,0.4,0.4c0.1,0,0.2,0,0.3-0.1
			c0.1-0.1,0.2-0.2,0.2-0.3c0,0,0,0,0-0.1C89.4,6.8,89.2,6.6,89,6.6z"/>
		<path class="st5" d="M73.5,26.9l-1.3,12.4l0,0c0.1,0,0.3,0,0.4,0l1.3-12.5h-0.1C73.7,26.9,73.6,26.9,73.5,26.9z"/>
		<path class="st5" d="M60.8,17.7c0-0.1,0-0.1,0-0.2c0-0.1,0-0.2,0-0.2L26,17c0,0.1,0,0.1,0,0.2c0,0.1,0,0.2,0,0.2L60.8,17.7z"/>
		<path class="st5" d="M63.8,18.7l8.9,6.5c0.1-0.1,0.2-0.3,0.3-0.4l-8.9-6.5C64,18.5,63.9,18.6,63.8,18.7z"/>
		<path class="st5" d="M23.7,17.6L2,32.6c0.1,0.1,0.2,0.2,0.3,0.4L24,18C23.8,17.9,23.8,17.7,23.7,17.6z"/>
		<path class="st5" d="M24.3,31.2l-22.1,2c0,0.1,0,0.2,0,0.3v0.1l22-2c0-0.1,0-0.2,0-0.2C24.3,31.3,24.3,31.2,24.3,31.2z"/>
		<path class="st5" d="M25.6,31.3c0,0.1,0,0.2-0.1,0.3l45,9.3c0-0.2,0-0.3,0.1-0.4l-45-9.3C25.6,31.3,25.6,31.3,25.6,31.3z"/>
		<path class="st5" d="M24.1,17.8c0.2,0.2,0.4,0.3,0.7,0.3c0.5,0,0.9-0.3,1-0.8c0-0.1,0-0.2,0-0.2c0-0.1,0-0.1,0-0.2
			c-0.1-0.4-0.5-0.8-1-0.8s-1,0.4-1,1c0,0.1,0,0.3,0.1,0.4C23.9,17.6,24,17.7,24.1,17.8z"/>
		<path class="st5" d="M66.7,7.9c-0.2,0-0.3-0.1-0.4-0.2L63,15.8c0.1,0,0.3,0.1,0.4,0.2L66.7,7.9z"/>
		<path class="st5" d="M85,0.8C84.9,0.9,84.8,1,84.6,1l3.8,5.7c0.1-0.1,0.2-0.2,0.4-0.2L85,0.8z"/>
		<path class="st5" d="M89.5,7.5l7.5,3c0-0.1,0.1-0.3,0.2-0.4l-7.5-3C89.6,7.3,89.6,7.4,89.5,7.5z"/>
		<path class="st5" d="M67.2,6.8c0.1,0.1,0.2,0.2,0.2,0.4L84,0.9c-0.1-0.1-0.2-0.3-0.2-0.4L67.2,6.8z"/>
		<path class="st5" d="M84.9,0.6c0-0.1,0-0.1,0-0.2c0-0.2-0.2-0.4-0.4-0.4c-0.2,0-0.4,0.2-0.4,0.4c0,0,0,0,0,0.1s0.1,0.3,0.2,0.3
			c0.1,0.1,0.2,0.1,0.3,0.1l0,0C84.7,0.8,84.8,0.7,84.9,0.6z"/>
		<path class="st5" d="M66.7,7.7C66.7,7.7,66.8,7.7,66.7,7.7c0.3,0,0.5-0.2,0.5-0.4c0,0,0,0,0-0.1c0-0.2-0.1-0.3-0.3-0.4h-0.1
			c-0.2,0-0.4,0.2-0.4,0.4c0,0.1,0,0.1,0,0.2C66.4,7.6,66.6,7.7,66.7,7.7z"/>
	</g>
</g>
</svg>
